<?xml version="1.0" encoding="UTF-8" standalone="no"?>
<!-- Created with Inkscape (http://www.inkscape.org/) -->

<svg
   width="33.897362mm"
   height="33.897339mm"
   viewBox="0 0 33.897362 33.897339"
   version="1.1"
   id="svg6381"
   inkscape:version="1.2.2 (b0a8486541, 2022-12-01)"
   sodipodi:docname="logo.svg"
   inkscape:export-filename="logo.svg"
   inkscape:export-xdpi="194.5835"
   inkscape:export-ydpi="194.5835"
   xmlns:inkscape="http://www.inkscape.org/namespaces/inkscape"
   xmlns:sodipodi="http://sodipodi.sourceforge.net/DTD/sodipodi-0.dtd"
   xmlns="http://www.w3.org/2000/svg"
   xmlns:svg="http://www.w3.org/2000/svg">
  <sodipodi:namedview
     id="namedview6383"
     pagecolor="#ffffff"
     bordercolor="#666666"
     borderopacity="1.0"
     inkscape:showpageshadow="2"
     inkscape:pageopacity="0.0"
     inkscape:pagecheckerboard="0"
     inkscape:deskcolor="#d1d1d1"
     inkscape:document-units="mm"
     showgrid="false"
     inkscape:zoom="0.3732674"
     inkscape:cx="77.692293"
     inkscape:cy="1452.0422"
     inkscape:window-width="1920"
     inkscape:window-height="1013"
     inkscape:window-x="0"
     inkscape:window-y="0"
     inkscape:window-maximized="1"
     inkscape:current-layer="layer1" />
  <defs
     id="defs6378" />
  <g
     inkscape:label="Capa 1"
     inkscape:groupmode="layer"
     id="layer1"
     transform="translate(-16.110644,-251.96063)">
    <circle
       style="fill:#b3b3b3;stroke:#000000;stroke-width:7.12739;stroke-opacity:0"
       id="path4170-1"
       cx="106.18531"
       cy="137.46272"
       r="113.27515"
       inkscape:export-filename="path4170-1.png"
       inkscape:export-xdpi="50"
       inkscape:export-ydpi="50" />
    <circle
       style="fill:#b3b3b3;stroke:#000000;stroke-width:1.0339;stroke-opacity:0"
       id="path4170-1-3"
       cx="33.059322"
       cy="268.9093"
       r="16.431728"
       inkscape:export-filename="../../Escritorio/logo.svg"
       inkscape:export-xdpi="273.63303"
       inkscape:export-ydpi="273.63303" />
    <path
       class="cls-1"
       d="m 42.483001,274.99686 a 1.2673606,1.2673606 0 0 0 0.09954,0.24468 c 0.03868,0.0609 0.09481,0.11334 0.114421,0.18271 0.03287,0.11645 -0.0449,0.23145 -0.112257,0.33207 -0.154658,0.23357 -0.26747,0.49307 -0.423698,0.72663 -0.302418,0.456 -0.744104,0.78648 -1.238239,1.03062 l -0.02543,-0.053 c -0.121184,-0.0632 -0.264792,-0.0414 -0.402504,-0.0465 v -0.11862 a 1.6312038,1.6312038 0 0 0 0.833613,-1.42571 l -0.09481,-0.053 c 0.1059,-0.0285 0.211869,-0.0583 0.317769,-0.0879 0.18908,-0.053 0.381324,-0.10901 0.545517,-0.21715 a 0.81242429,0.81242429 0 0 0 0.166817,-0.14617 0.57621748,0.57621748 0 0 0 0.146706,-0.32891 z"
       id="path2580-5-6"
       style="fill:#999999;stroke-width:0.0529609" />
    <path
       class="cls-1"
       d="m 42.469232,274.96191 c 0.0054,0.0108 0.0095,0.0234 0.0142,0.035 l -0.06884,0.0414 h -0.216088 a 0.70014659,0.70014659 0 0 0 -0.05302,-0.0975 2.1857074,2.1857074 0 0 0 -0.284931,-0.3093 3.6013591,3.6013591 0 0 1 -0.505267,-0.64241 l 0.129164,-0.0901 a 1.8859471,1.8859471 0 0 0 0.294453,0.35855 c 0.239919,0.22774 0.559812,0.39879 0.690626,0.70436 z"
       id="path2582-5-7"
       style="fill:#999999;stroke-width:0.0529609" />
    <path
       class="cls-2"
       d="m 42.224024,275.10702 a 0.51848982,0.51848982 0 0 0 -0.02597,-0.0694 h 0.216062 a 0.57621748,0.57621748 0 0 1 -0.146692,0.32889 l -0.03233,-0.0281 a 0.41733398,0.41733398 0 0 0 -0.01082,-0.23144 z"
       id="path2584-4-5"
       style="fill:#9e6875;stroke-width:0.0529609" />
    <path
       class="cls-1"
       d="m 38.90176,277.3319 v 0 l 0.04653,-0.003 a 0.97289669,0.97289669 0 0 1 -0.328874,-1.11854 v -0.0356 c 0.04031,0.003 0.08034,0.005 0.120778,0.007 0.843148,0.0365 1.677275,-0.14134 2.494468,-0.36171 l 0.09481,0.053 a 1.6312038,1.6312038 0 0 1 -0.833613,1.42571 v 0.11862 c -0.0211,0 -0.04247,0 -0.06357,-0.004 -0.133492,-0.0158 -0.257921,-0.0747 -0.389804,-0.10225 -0.37072,-0.0768 -0.74992,0.0979 -1.123818,0.0498 -0.01082,0 -0.02597,-0.005 -0.02692,-0.0174 -0.001,-0.0108 0.0054,-0.009 0.0095,-0.009 z"
       id="path2586-7-3"
       style="fill:#999999;stroke-width:0.0529609" />
    <path
       class="cls-1"
       d="m 38.739176,277.34304 0.162584,-0.0108 v 0 c -0.0054,0 -0.0095,0.003 -0.0095,0.008 5.82e-4,0.005 0.01542,0.0158 0.02692,0.0174 0.373912,0.0482 0.755222,-0.1266 1.123845,-0.0496 0.131869,0.0276 0.256312,0.0863 0.389791,0.10225 0.0211,0 0.0422,0.003 0.06357,0.004 0.13763,0.005 0.281212,-0.0164 0.402504,0.0467 l 0.02543,0.053 a 5.862801,5.862801 0 0 1 -0.996724,0.37442 9.0860171,9.0860171 0 0 1 -1.582478,0.29977 l -0.0027,-0.0396 a 0.29340485,0.29340485 0 0 1 -0.07412,-0.17582 1.1508461,1.1508461 0 0 1 0.479839,-0.53386 z"
       id="path2588-6-5"
       style="fill:#999999;stroke-width:0.0529609" />
    <path
       class="cls-1"
       d="m 38.61948,276.20861 a 0.97289669,0.97289669 0 0 0 0.3289,1.11853 l -0.04653,0.003 -0.16261,0.0108 a 0.11598496,0.11598496 0 0 1 -0.01907,0 v 0 a 5.5609225,5.5609225 0 0 0 -1.136545,-0.16524 v 0 l -0.229857,-0.41467 c -0.119696,-0.21556 -0.242571,-0.45335 -0.221905,-0.69432 0.142486,0 0.284931,0.003 0.426335,0.009 0.354828,0.018 0.707032,0.0721 1.059209,0.0948 z"
       id="path2590-5-6"
       style="fill:#999999;stroke-width:0.0529609" />
    <path
       class="cls-1"
       d="m 38.720106,277.34463 a 0.11598496,0.11598496 0 0 0 0.0192,0 l 0.0068,0.0953 a 1.1508461,1.1508461 0 0 0 -0.479826,0.53385 l -0.01082,0.026 a 2.2937482,2.2937482 0 0 0 -0.919943,-0.25898 0.27275,0.27275 0 0 0 -0.02177,-0.017 l -0.206013,-0.14192 v -0.003 a 1.1926855,1.1926855 0 0 1 0.476648,-0.40145 5.5609225,5.5609225 0 0 1 1.136545,0.16523 z"
       id="path2592-6-2"
       style="fill:#999999;stroke-width:0.0529609" />
    <path
       class="cls-2"
       d="m 36.343738,262.29783 c -0.06032,-0.0817 -0.187483,-0.0847 -0.27591,-0.0356 a 0.635534,0.635534 0 0 0 -0.203375,0.22245 1.0269171,1.0269171 0 0 0 -0.158891,0.30929 0.35060293,0.35060293 0 0 0 0.06884,0.32625 0.43269271,0.43269271 0 0 0 0.08372,0.0641 l 0.148829,-0.0185 0.291816,-0.52961 c 0.06046,-0.10496 0.117667,-0.24152 0.04504,-0.33844 z m 0.261114,5.53391 0.07412,-0.0176 c 0.183777,-0.17901 0.161542,-0.48723 0.05302,-0.71869 -0.10847,-0.23142 -0.292883,-0.42368 -0.40886,-0.65141 a 1.3203218,1.3203218 0 0 1 -0.111852,-0.86379 l -0.133491,-0.0298 c -0.172119,0.079 -0.283349,0.2611 -0.322517,0.44806 -0.04179,0.19914 -0.01434,0.40567 0.01217,0.60746 0.01961,0.14351 0.04031,0.29129 0.113881,0.41627 a 1.1391946,1.1391946 0 0 0 0.166303,0.20125 l 0.387139,0.39617 a 1.0592232,1.0592232 0 0 1 0.169468,0.21184 z m -3.853986,4.30362 c -0.07723,0.64348 -0.347958,1.27372 -0.631834,1.86583 l -0.0027,0.008 c 0.203889,0.0883 0.405669,0.18958 0.611167,0.26851 0.63554,0.2431 1.344154,0.27593 1.952143,0.57991 l 0.04071,0.0207 0.121184,-0.036 c 0.175311,-0.0672 0.296062,-0.22721 0.447015,-0.33893 a 1.8536408,1.8536408 0 0 1 0.273799,-0.1589 l 0.729809,-0.37072 -0.02177,-0.0425 c -0.46764,-0.0974 -0.953296,-0.20178 -1.333551,-0.48988 -0.168967,-0.12768 -0.311426,-0.28707 -0.470304,-0.42793 -0.449097,-0.39774 -1.014198,-0.63555 -1.568696,-0.86433 z m -3.385291,-4.36718 c 0.883925,-0.57251 1.617453,-1.35527 2.33824,-2.12745 l -0.01488,0.036 1.665101,-2.25457 a 2.2858039,2.2858039 0 0 0 0.24625,-0.38396 c 0.07412,-0.15889 0.111852,-0.33049 0.17266,-0.49412 a 3.6696792,3.6696792 0 0 1 0.345847,-0.64879 c 0.373899,-0.60322 0.767395,-1.22393 1.363211,-1.60524 a 4.3242792,4.3242792 0 0 1 0.83625,-0.3861 c 0.595289,-0.22031 1.252022,-0.41679 1.853654,-0.21184 l 0.03909,0.0297 a 0.11333689,0.11333689 0 0 0 -0.02502,-0.0784 c 0.04977,0.0778 0.158891,0.0805 0.240988,0.12767 a 0.43587038,0.43587038 0 0 1 0.150925,0.19226 3.3333758,3.3333758 0 0 1 0.346362,1.47708 c 0,0.59316 -0.158878,1.17679 -0.167886,1.76945 -0.0095,0.65723 0.161529,1.30176 0.332607,1.93677 0.03286,0.12241 0.06627,0.24523 0.09914,0.36809 a 0.9294685,0.9294685 0 0 0 0.06668,0.19119 c 0.03706,0.0705 0.0921,0.13038 0.131869,0.19967 a 1.081467,1.081467 0 0 1 0.09386,0.24202 l 0.13878,0.46447 -0.144596,0.80871 c 0.169482,0.61224 0.105901,1.26472 0.209191,1.89178 0.08521,0.51795 0.282821,1.00944 0.476662,1.49668 l 0.225082,-0.15305 c -0.01961,0.41308 -0.03868,0.83254 0.06235,1.23345 a 4.1309709,4.1309709 0 0 0 0.148301,0.44488 c 0.211842,0.56615 0.433219,1.14502 0.752571,1.65398 a 3.6013591,3.6013591 0 0 0 0.505267,0.64242 2.1857074,2.1857074 0 0 1 0.28493,0.30929 0.70014659,0.70014659 0 0 1 0.05302,0.0975 h -0.05721 a 0.37072815,0.37072815 0 0 1 -0.0081,0.15094 l -0.01704,0.0135 0.120237,0.13778 0.03233,0.0281 a 0.81242429,0.81242429 0 0 1 -0.159419,0.14407 c -0.16418,0.1059 -0.35641,0.1642 -0.54549,0.21715 -0.1059,0.0298 -0.211855,0.0592 -0.317769,0.0879 -0.817194,0.22031 -1.65132,0.39825 -2.494468,0.36172 -0.0403,0 -0.08047,-0.003 -0.120778,-0.007 -0.354828,-0.0227 -0.707033,-0.0768 -1.059223,-0.0948 -0.141336,-0.007 -0.283863,-0.008 -0.426335,-0.009 a 5.601173,5.601173 0 0 1 -0.8638,-0.053 5.5445045,5.5445045 0 0 1 -0.87385,-0.23727 l -0.206553,-0.0698 -2.008813,-0.68162 -0.843675,-0.28599 c -0.485655,-0.16472 -0.976599,-0.33208 -1.405585,-0.61223 -0.409387,-0.26747 -0.758941,-0.63554 -1.210175,-0.8225 l 0.0054,0.0298 -0.139348,-0.12822 -0.574636,-0.52961 -0.279102,-0.2574 a 3.2306309,3.2306309 0 0 0 -0.39827,-0.32835 c -0.158878,-0.10591 -0.341073,-0.18271 -0.490944,-0.30347 -0.185373,-0.14988 -0.317756,-0.36278 -0.524837,-0.48247 -0.100085,-0.0583 -0.214506,-0.0926 -0.301891,-0.16843 a 0.89610293,0.89610293 0 0 1 -0.185888,-0.2775 c -0.01853,-0.0356 -0.0376,-0.071 -0.05883,-0.10591 a 1.4829126,1.4829126 0 0 0 -0.291288,-0.31778 l -0.04653,-0.0403 a 0.15199854,0.15199854 0 0 0 -0.07466,-0.0423 h -0.01082 l 0.07628,-0.0663 a 0.24679901,0.24679901 0 0 1 -0.0027,-0.19119 0.73351212,0.73351212 0 0 1 0.09697,-0.17001 l 0.192786,-0.2775 a 2.6210481,2.6210481 0 0 0 0.292856,-0.49096 l -0.02597,-0.0302 c 0.300309,-0.2558 0.593166,-0.52113 0.885522,-0.78646 l 0.0376,0.0223 0.0142,-0.0238 a 1.9373193,1.9373193 0 0 0 0.37444,-0.0603 3.2872995,3.2872995 0 0 0 0.827797,-0.35909 q 0.123347,-0.0741 0.244139,-0.15251 z"
       id="path2594-9-9"
       style="fill:#9e6875;stroke-width:0.0529609" />
    <path
       class="cls-1"
       d="m 37.335701,277.74078 a 2.2937482,2.2937482 0 0 1 0.919943,0.2595 l 0.01082,-0.026 a 0.29340485,0.29340485 0 0 0 0.07412,0.17583 l 0.0027,0.0396 a 9.1389787,9.1389787 0 0 1 -1.727601,0.009 q 0.352191,-0.1631 0.698566,-0.33736 a 0.0910932,0.0910932 0 0 0 0.05302,-0.0456 c 0.0068,-0.0285 -0.01217,-0.0561 -0.03287,-0.0763 z"
       id="path2596-3-1"
       style="fill:#999999;stroke-width:0.0529609" />
    <path
       class="cls-1"
       d="m 37.31559,277.86046 q -0.34743,0.17477 -0.698566,0.33737 c -0.279102,-0.0242 -0.557689,-0.062 -0.833613,-0.1128 l 0.01961,-0.0583 -0.08737,0.017 -0.09008,-0.036 v 0 l 0.01474,-0.036 c -0.153603,-0.24999 -0.446473,-0.3792 -0.632374,-0.60587 -0.105901,-0.13133 -0.180072,-0.29606 -0.28439,-0.42633 a 11.015922,11.015922 0 0 1 1.132298,0.15463 c 0.112799,0.0211 0.224556,0.0439 0.336299,0.0688 a 2.3747786,2.3747786 0 0 1 0.443282,0.13295 2.6374662,2.6374662 0 0 1 0.419464,0.25209 l 0.05302,0.0344 0.206026,0.14191 a 0.27275,0.27275 0 0 1 0.02164,0.017 c 0.0234,0.0202 0.04287,0.0461 0.03395,0.0741 a 0.0910932,0.0910932 0 0 1 -0.05396,0.0449 z"
       id="path2598-7-2"
       style="fill:#999999;stroke-width:0.0529609" />
    <path
       class="cls-1"
       d="m 37.055004,277.54747 a 2.6374662,2.6374662 0 0 0 -0.419451,-0.2521 2.3747786,2.3747786 0 0 0 -0.443281,-0.13295 c -0.111852,-0.025 -0.223487,-0.0477 -0.336299,-0.0688 l 0.0068,-0.0349 a 0.38026117,0.38026117 0 0 0 -0.11645,-0.12984 l -0.0027,0.005 a 0.85955969,0.85955969 0 0 1 -0.582589,-1.12278 l 0.03652,-0.1059 0.206567,0.0698 a 5.5445045,5.5445045 0 0 0 0.869089,0.24308 5.601173,5.601173 0 0 0 0.863787,0.053 c -0.02069,0.24098 0.102249,0.47666 0.221918,0.69433 l 0.229843,0.41468 v 0 a 1.1926855,1.1926855 0 0 0 -0.476647,0.40145 v 0.003 z"
       id="path2600-4-7"
       style="fill:#999999;stroke-width:0.0529609" />
    <path
       class="cls-3"
       d="m 36.729836,267.09293 c 0.110634,0.23144 0.132951,0.53966 -0.05288,0.71868 l -0.07425,0.0175 A 1.0592232,1.0592232 0 0 0 36.435361,267.6199 L 36.04503,267.219 a 1.1391946,1.1391946 0 0 1 -0.166303,-0.20126 c -0.07371,-0.12497 -0.09427,-0.27275 -0.113745,-0.41628 -0.02692,-0.20178 -0.05302,-0.40832 -0.01217,-0.60746 0.03909,-0.18696 0.150412,-0.37074 0.322531,-0.44804 l 0.133491,0.0298 a 1.3203218,1.3203218 0 0 0 0.111852,0.8638 c 0.115503,0.2309 0.298686,0.4221 0.409915,0.65354 z"
       id="path2602-5-0"
       style="fill:#9e6875;fill-opacity:1;stroke-width:0.0529609" />
    <path
       class="cls-3"
       d="m 36.343738,262.29783 c 0.07249,0.097 0.01542,0.23356 -0.04287,0.33947 l -0.291815,0.52963 -0.148816,0.0185 a 0.43269271,0.43269271 0 0 1 -0.08372,-0.0641 0.35060293,0.35060293 0 0 1 -0.06884,-0.32624 1.0269171,1.0269171 0 0 1 0.158892,-0.3093 0.635534,0.635534 0 0 1 0.203362,-0.22243 c 0.08642,-0.0503 0.213438,-0.0456 0.273813,0.0344 z"
       id="path2604-2-9"
       style="fill:#9e6875;fill-opacity:1;stroke-width:0.0529609" />
    <path
       class="cls-3"
       d="m 36.269608,273.93126 0.02164,0.0425 -0.729795,0.37075 a 1.8536408,1.8536408 0 0 0 -0.273827,0.15886 c -0.150925,0.11185 -0.271677,0.27169 -0.446987,0.33897 l -0.121184,0.036 -0.04071,-0.0207 c -0.608002,-0.304 -1.31663,-0.33684 -1.952169,-0.57993 -0.205472,-0.079 -0.407265,-0.18008 -0.611167,-0.26853 l 0.0027,-0.008 c 0.283862,-0.5921 0.554511,-1.22233 0.631819,-1.86581 l 0.146178,0.0164 c 0.554511,0.22985 1.119599,0.46658 1.56871,0.86433 0.158878,0.14092 0.30135,0.30028 0.470291,0.42793 0.381323,0.28599 0.8638,0.39032 1.333563,0.48777 z"
       id="path2606-5-3"
       style="fill:#1d1d1b;stroke-width:0.0529609" />
    <path
       class="cls-1"
       d="m 33.620482,276.48826 c -0.0095,-0.003 -0.01542,0.0108 -0.01542,0.0149 l -0.03963,-0.005 c -0.02651,-0.0356 -0.05288,-0.0721 -0.07466,-0.10901 a 2.1618749,2.1618749 0 0 1 -0.344238,-1.25362 l 0.03868,-0.11333 2.008812,0.68161 -0.03652,0.10591 a 0.85955969,0.85955969 0 0 0 0.582575,1.12277 l 0.0027,-0.005 a 0.38026117,0.38026117 0 0 1 0.11645,0.12984 l -0.0068,0.0349 a 11.015922,11.015922 0 0 0 -1.129675,-0.15147 0.60587573,0.60587573 0 0 0 -0.165235,-0.14829 0.93582377,0.93582377 0 0 0 -0.211828,-0.0826 z"
       id="path2608-4-6"
       style="fill:#999999;stroke-width:0.0529609" />
    <path
       class="cls-1"
       d="m 30.1441,274.53874 -0.07777,0.0207 c -0.336299,0.0567 -0.601104,-0.38397 -0.908297,-0.43906 l 0.0041,-0.0216 a 1.1979816,1.1979816 0 0 1 0.423684,-0.88923 l 0.0054,-0.005 0.139348,0.12822 -0.0054,-0.0298 c 0.45122,0.18747 0.800774,0.55504 1.210162,0.82249 0.428972,0.28017 0.919929,0.44752 1.405584,0.61223 l 0.843675,0.28599 -0.03868,0.11334 a 2.1618749,2.1618749 0 0 0 0.344251,1.25359 l -0.01082,0.007 c -0.1059,0.0609 -0.23831,0.0185 -0.33949,-0.0456 -0.101167,-0.0641 -0.192231,-0.15148 -0.307153,-0.18748 a 0.95700825,0.95700825 0 0 0 -0.270107,-0.0242 2.1014992,2.1014992 0 0 1 -1.294369,-0.47665 c -0.322016,-0.26482 -0.566697,-0.62974 -0.934238,-0.8278 -0.06411,-0.0344 -0.135115,-0.0672 -0.169482,-0.13133 a 0.29287525,0.29287525 0 0 1 -0.0211,-0.1647 z"
       id="path2610-7-0"
       style="fill:#999999;stroke-width:0.0529609" />
    <path
       class="cls-1"
       d="m 30.1441,274.53874 a 0.29287525,0.29287525 0 0 0 0.02069,0.16418 c 0.03435,0.0641 0.105901,0.097 0.169482,0.13133 0.367555,0.19808 0.612222,0.56193 0.934225,0.82781 a 2.1014992,2.1014992 0 0 0 1.294368,0.47664 0.95700825,0.95700825 0 0 1 0.270094,0.0242 c 0.114963,0.036 0.205499,0.12295 0.30718,0.18747 0.101708,0.0647 0.235686,0.1059 0.339491,0.0456 l 0.01082,-0.007 c 0.02326,0.0371 0.04815,0.0737 0.07466,0.10901 l 0.03976,0.005 c 0,-0.003 0.0054,-0.018 0.01542,-0.0149 l 0.726089,0.21978 a 0.93582377,0.93582377 0 0 1 0.211856,0.0826 0.60587573,0.60587573 0 0 1 0.165221,0.1483 c 0.105901,0.13038 0.177434,0.29498 0.284417,0.42634 0.185901,0.22666 0.476661,0.35589 0.632347,0.60588 l -0.01488,0.036 -0.03868,-0.0154 -0.509459,-0.20285 a 2.5241291,2.5241291 0 0 0 -0.406236,-0.13606 2.5246586,2.5246586 0 0 0 -0.485642,-0.0376 l -0.610112,-0.008 h -0.06884 a 1.5544101,1.5544101 0 0 1 -0.417354,-0.23091 l -0.08575,0.035 c -1.039098,-0.14775 -1.891767,-0.91199 -2.908103,-1.17362 -0.158891,-0.0403 -0.321488,-0.071 -0.453344,-0.16418 a 1.0549864,1.0549864 0 0 1 -0.235673,-0.26479 c -0.174783,-0.24735 -0.343183,-0.50527 -0.436938,-0.79443 a 1.3033743,1.3033743 0 0 1 -0.04342,-0.68108 0.92364274,0.92364274 0 0 1 0.07209,-0.20602 0.32888882,0.32888882 0 0 1 0.162598,-0.009 c 0.307166,0.053 0.571985,0.49572 0.908284,0.43905 z"
       id="path2612-4-6"
       style="fill:#999999;stroke-width:0.0529609" />
    <path
       class="cls-1"
       d="m 29.016562,272.67291 0.574636,0.52961 -0.0054,0.005 a 1.1979816,1.1979816 0 0 0 -0.423697,0.88922 l -0.0041,0.0216 a 0.32888882,0.32888882 0 0 0 -0.162598,0.009 0.92364274,0.92364274 0 0 0 -0.07209,0.20602 l -0.125512,-0.0307 c -0.293411,-0.34108 -0.827797,-0.29129 -1.246179,-0.456 -0.515302,-0.20231 -0.818789,-0.72133 -0.970255,-1.26736 l 0.09427,-0.0143 c 0.110634,-0.0334 0.230371,0 0.339477,0.0381 a 2.2699157,2.2699157 0 0 1 0.505239,0.26004 c 0.125512,0.0864 0.249455,0.18854 0.400394,0.21184 0.150939,0.0233 0.299227,-0.035 0.439589,-0.0926 l 0.590515,-0.24098 z"
       id="path2614-4-2"
       style="fill:#999999;stroke-width:0.0529609" />
    <path
       class="cls-4"
       d="m 30.223546,264.30929 c 0.0848,0.0291 0.134438,0.15889 0.219794,0.13349 l 0.0142,0.009 c -0.01637,0.0207 -0.03178,0.0414 -0.04707,0.0623 -0.100626,0.13978 -0.188011,0.29023 -0.282294,0.43481 l -0.05883,-0.008 a 2.3859003,2.3859003 0 0 0 -0.932101,0.15889 l -0.01434,-0.0185 0.05302,-0.0403 0.0917,-0.0688 c 0.144054,-0.10847 0.293938,-0.2235 0.376035,-0.38344 l 0.406723,-0.23938 c 0.05302,-0.0285 0.114963,-0.0609 0.17266,-0.0407 z"
       id="path2616-3-6"
       style="fill:#999999;stroke-width:0.0529609" />
    <path
       class="cls-5"
       d="m 29.66376,263.20558 a 0.32306309,0.32306309 0 0 1 0.101167,0.17794 c 0.01217,0.089 -0.02421,0.17531 -0.05613,0.25634 a 2.3832524,2.3832524 0 0 0 -0.158878,0.74517 h -0.01434 a 1.5660616,1.5660616 0 0 1 -0.158892,0.25049 l -0.0081,-0.005 a 0.32518153,0.32518153 0 0 0 0.05302,-0.0975 0.52961166,0.52961166 0 0 0 0.01637,-0.18006 c -0.0095,-0.32306 -0.08047,-0.65833 -0.287568,-0.90617 -0.09386,-0.1128 -0.240975,-0.20867 -0.380282,-0.16313 a 0.45334755,0.45334755 0 0 0 -0.146692,0.0948 0.55397379,0.55397379 0 0 0 -0.05302,0.0483 1.408767,1.408767 0 0 1 0.609057,-0.55292 0.51425292,0.51425292 0 0 1 0.0752,0.0292 1.0253281,1.0253281 0 0 1 0.365959,0.28332 l 0.0142,-0.009 c 0.0081,0.009 0.02164,0.0207 0.02908,0.0312 z"
       id="path2618-0-1"
       style="fill:#bcbe07;stroke-width:0.0529609" />
    <path
       class="cls-5"
       d="m 28.359329,264.98348 a 0.58257281,0.58257281 0 0 1 0.131869,-0.30876 l 0.02908,-0.007 a 1.1444908,1.1444908 0 0 0 0.242571,0.3829 l 0.01434,0.0482 a 0.38714612,0.38714612 0 0 1 -0.101166,0.0185 0.27275,0.27275 0 0 1 -0.254216,-0.12605 z"
       id="path2620-7-8"
       style="fill:#bcbe07;stroke-width:0.0529609" />
    <path
       class="cls-6"
       d="m 28.641081,264.1054 c 0,0.1541 -0.05613,0.27963 -0.126052,0.27963 -0.04342,0 -0.08115,-0.0483 -0.105901,-0.12132 a 1.4267739,1.4267739 0 0 1 -0.01434,-0.2558 c 0.01745,-0.1059 0.06357,-0.18219 0.118074,-0.18219 0.07155,0 0.127675,0.1251 0.127675,0.27964 z"
       id="path2622-8-7"
       style="fill:#ffffff;stroke-width:0.0529609" />
    <path
       class="cls-1"
       d="m 28.515556,263.52388 a 0.173183,0.173183 0 0 1 0.05302,-0.0975 c -0.01961,0.0318 -0.03719,0.0625 -0.05302,0.0975 z"
       id="path2624-6-9"
       style="fill:#84bc26;stroke-width:0.0529609" />
    <path
       class="cls-1"
       d="m 28.46101,265.40082 a 0.59475388,0.59475388 0 0 1 -0.101708,-0.41734 l 0.05978,0.007 a 0.27275,0.27275 0 0 0 0.254216,0.12606 0.38714612,0.38714612 0 0 0 0.101032,-0.0185 0.77005534,0.77005534 0 0 0 0.176893,-0.0832 c 0.04653,-0.0285 0.09116,-0.0592 0.134438,-0.0921 l 0.09116,0.12078 -0.05302,0.0403 -0.118073,0.089 c -0.105901,0.079 -0.211829,0.15889 -0.317756,0.23304 -0.04342,0.0298 -0.08737,0.0588 -0.131869,0.0868 z"
       id="path2626-8-2"
       style="fill:#999999;stroke-width:0.0529609" />
    <path
       class="cls-3"
       d="m 29.366629,264.62917 0.0081,0.005 a 1.5623543,1.5623543 0 0 1 -0.28865,0.28757 c -0.04341,0.0329 -0.08791,0.0636 -0.134438,0.0921 a 0.77005534,0.77005534 0 0 1 -0.176894,0.083 l -0.0142,-0.0481 a 1.1444908,1.1444908 0 0 1 -0.242557,-0.38291 c -0.01907,-0.0465 -0.03557,-0.0943 -0.04977,-0.1425 a 1.7170009,1.7170009 0 0 1 -0.05789,-0.26109 c 0.0234,0.073 0.06086,0.12119 0.105901,0.12119 0.06979,0 0.126053,-0.12551 0.126053,-0.27964 0,-0.15411 -0.05613,-0.27963 -0.126053,-0.27963 -0.05302,0 -0.100626,0.0756 -0.118073,0.18218 a 1.2302879,1.2302879 0 0 1 0.01637,-0.1647 1.2022185,1.2022185 0 0 1 0.102249,-0.31778 c 0.01582,-0.0334 0.03327,-0.0657 0.05302,-0.0975 v 0 a 0.55397379,0.55397379 0 0 1 0.05288,-0.0482 0.45334755,0.45334755 0 0 1 0.14672,-0.0948 c 0.139348,-0.0456 0.286513,0.053 0.380255,0.16311 0.207081,0.24787 0.277519,0.58257 0.287581,0.90617 a 0.52961166,0.52961166 0 0 1 -0.01637,0.18006 0.32518153,0.32518153 0 0 1 -0.05451,0.0948 z"
       id="path2628-8-0"
       style="fill:#1d1d1b;stroke-width:0.0529609" />
    <path
       class="cls-7"
       d="m 28.396915,264.00794 a 1.4267739,1.4267739 0 0 0 0.01434,0.25581 0.55026649,0.55026649 0 0 1 -0.02178,-0.15889 0.5672141,0.5672141 0 0 1 0.0081,-0.097 z"
       id="path2630-4-2"
       style="fill:#c2b8b9;stroke-width:0.0529609" />
    <path
       class="cls-4"
       d="m 27.672949,263.72459 a 0.8081874,0.8081874 0 0 0 0.153577,0.51003 l -0.433219,0.0487 c -0.05302,-0.079 -0.01582,-0.18431 0.02854,-0.26797 a 1.5358737,1.5358737 0 0 1 0.143,-0.22299 v -0.003 l 0.05302,-0.0651 v 0 z"
       id="path2632-3-3"
       style="fill:#4d4d4d;stroke-width:0.0529609" />
    <path
       class="cls-1"
       d="m 27.326047,271.30122 c 0.206012,0.1197 0.339477,0.33261 0.524851,0.48249 0.14987,0.12078 0.329955,0.19752 0.490943,0.30346 a 3.2306309,3.2306309 0 0 1 0.398284,0.32836 l 0.279088,0.25738 -0.06627,0.0721 -0.590528,0.24097 c -0.140349,0.0579 -0.289692,0.11591 -0.439576,0.0926 -0.149857,-0.0233 -0.274855,-0.12605 -0.40038,-0.21184 a 2.2699157,2.2699157 0 0 0 -0.505253,-0.26005 c -0.109012,-0.0403 -0.228789,-0.0715 -0.339477,-0.0381 l -0.09427,0.0142 c -0.02813,-0.10116 -0.05302,-0.20282 -0.06884,-0.30397 -0.03124,-0.17638 -0.06573,-0.37075 -0.142486,-0.5328 l 0.07777,-0.0108 a 1.0089102,1.0089102 0 0 0 0.403572,0.0349 0.29817135,0.29817135 0 0 0 0.139199,-0.0444 c 0.06465,-0.0456 0.08954,-0.12768 0.122402,-0.19967 0.03287,-0.0719 0.08791,-0.14405 0.164166,-0.14405 z"
       id="path2634-1-7"
       style="fill:#999999;stroke-width:0.0529609" />
    <path
       class="cls-2"
       d="m 26.98074,269.12452 0.02759,0.0312 a 2.6210481,2.6210481 0 0 1 -0.291301,0.49199 l -0.192772,0.27754 a 0.73351212,0.73351212 0 0 0 -0.09846,0.16895 0.24679901,0.24679901 0 0 0 0.0027,0.19118 l -0.07628,0.0663 a 0.16947573,0.16947573 0 0 0 -0.06357,0.017 c -0.273813,0.11185 -0.558744,0.23145 -0.749406,0.45759 -0.142486,0.17 -0.220308,0.38714 -0.367555,0.55292 -0.04923,0.0561 -0.119155,0.10901 -0.192244,0.0917 a 0.16206116,0.16206116 0 0 1 -0.10279,-0.18485 0.37072815,0.37072815 0 0 1 0.07155,-0.15888 c 0.01082,-0.0164 0.02272,-0.0318 0.03435,-0.0477 q 0.206026,-0.27594 0.412566,-0.55081 l 0.0081,-0.0108 a 3.4324132,3.4324132 0 0 1 0.353786,-0.42369 4.331164,4.331164 0 0 1 0.461297,-0.36437 c 0.261628,-0.19013 0.51372,-0.39402 0.761051,-0.60482 z"
       id="path2636-4-5"
       style="fill:#9e6875;stroke-width:0.0529609" />
    <path
       class="cls-4"
       d="m 27.021532,271.13281 c 0.08737,0.0756 0.201766,0.11023 0.301864,0.16841 l -0.04396,0.079 c -0.07628,0 -0.134439,0.0721 -0.166817,0.14248 -0.03233,0.0703 -0.05789,0.15412 -0.122402,0.19967 a 0.29817135,0.29817135 0 0 1 -0.139348,0.0444 1.0089102,1.0089102 0 0 1 -0.403558,-0.035 l -0.07777,0.0108 a 0.53437816,0.53437816 0 0 0 -0.256339,-0.27064 0.21767038,0.21767038 0 0 0 0.05667,-0.12389 0.1869529,0.1869529 0 0 0 -0.04707,-0.13404 q 0.332079,-0.17636 0.669974,-0.33896 l 0.04301,-0.0223 a 0.89610293,0.89610293 0 0 0 0.185901,0.27858 z"
       id="path2638-9-9"
       style="fill:#999999;stroke-width:0.0529609" />
    <path
       class="cls-4"
       d="m 25.84314,271.11955 h -0.0054 c -0.0238,-0.1059 0.0683,-0.21976 0.15359,-0.30028 0.120237,-0.1128 0.248386,-0.23038 0.40886,-0.26479 l 0.08521,-0.11753 a 1.4829126,1.4829126 0 0 1 0.291287,0.31777 c 0.0211,0.0334 0.04031,0.0688 0.05883,0.1059 l -0.04301,0.0223 q -0.338423,0.16313 -0.669961,0.33895 a 0.26480583,0.26480583 0 0 0 -0.1059,-0.0752 0.43481115,0.43481115 0 0 0 -0.173715,-0.0269 z"
       id="path2640-2-2"
       style="fill:#999999;stroke-width:0.0529609" />
    <path
       class="cls-4"
       d="m 26.113234,271.47441 a 0.70650191,0.70650191 0 0 1 -0.105901,0.0937 c -0.06316,0.0477 -0.145123,0.0979 -0.216088,0.0623 a 0.19701553,0.19701553 0 0 1 -0.08642,-0.14035 0.40991942,0.40991942 0 0 1 0.0054,-0.25473 0.21184467,0.21184467 0 0 1 0.126053,-0.11496 h 0.0027 a 0.43481115,0.43481115 0 0 1 0.175311,0.0218 0.26480583,0.26480583 0 0 1 0.1059,0.0752 0.1869529,0.1869529 0 0 1 0.04707,0.13403 0.21767038,0.21767038 0 0 1 -0.05559,0.12294 z"
       id="path2642-0-2"
       style="fill:#999999;stroke-width:0.0529609" />
    <path
       class="cls-4"
       d="m 25.770565,271.67355 a 0.31247088,0.31247088 0 0 1 -0.05302,0.40778 c -0.119696,0.0917 -0.325709,0.0444 -0.376022,-0.0979 -0.05613,-0.15888 0.08047,-0.31354 0.211842,-0.42369 l 0.01082,0.009 a 0.21184467,0.21184467 0 0 1 0.205999,0.10374 z"
       id="path2644-6-8"
       style="fill:#999999;stroke-width:0.0529609" />
    <path
       class="cls-1"
       d="m 25.770565,271.67355 a 0.21184467,0.21184467 0 0 0 -0.204944,-0.1059 l -0.01082,-0.009 c -0.134033,0.11118 -0.270649,0.26481 -0.211856,0.42367 0.05031,0.14249 0.256326,0.18961 0.376022,0.0979 a 0.31247088,0.31247088 0 0 0 0.05194,-0.40569 z m 0.06722,-0.554 c 0,0 0,0 0,0 a 0.21184467,0.21184467 0 0 0 -0.126053,0.11497 0.40991942,0.40991942 0 0 0 -0.0054,0.25475 0.19701553,0.19701553 0 0 0 0.08467,0.14134 c 0.07101,0.0356 0.153076,-0.0149 0.216088,-0.0623 a 0.70650191,0.70650191 0 0 0 0.105901,-0.0939 0.53437816,0.53437816 0 0 1 0.256339,0.27064 c 0.07682,0.15888 0.111176,0.35642 0.142486,0.53279 0.01799,0.10117 0.04085,0.20285 0.06884,0.304 0.151467,0.54602 0.454927,1.06504 0.970783,1.26789 0.418382,0.16469 0.953296,0.11496 1.246166,0.45599 l 0.125512,0.0307 a 1.3033743,1.3033743 0 0 0 0.04558,0.68107 c 0.09386,0.28865 0.264805,0.54657 0.436938,0.79443 a 1.0549864,1.0549864 0 0 0 0.235673,0.2648 c 0.131869,0.0932 0.296589,0.12389 0.453358,0.16418 1.016308,0.26163 1.868991,1.02586 2.908102,1.17362 l 0.08575,-0.0349 a 1.5544101,1.5544101 0 0 0 0.417327,0.23091 h 0.06884 l 0.612763,0.008 a 2.5246586,2.5246586 0 0 1 0.485655,0.0376 2.5241291,2.5241291 0 0 1 0.40621,0.13607 l 0.509472,0.20391 0.03868,0.0154 v 0 l 0.09008,0.036 -1.262044,0.24255 c -0.255284,0.0492 -0.51426,0.0985 -0.77325,0.0768 -0.156227,-0.0135 -0.30929,-0.053 -0.465003,-0.0672 -0.165221,-0.0171 -0.332052,-0.008 -0.498341,-0.0135 a 3.1633705,3.1633705 0 0 1 -1.136559,-0.24519 l 0.200724,0.12078 c -0.546558,0.12172 -1.115352,0.0678 -1.673041,0.0122 l -3.182957,-0.31301 a 1.6312038,1.6312038 0 0 1 -0.447529,-0.0901 c -0.173715,-0.0688 -0.317769,-0.19437 -0.458118,-0.31774 -0.732973,-0.64244 -1.479215,-1.30181 -1.959568,-2.14917 a 1.7683733,1.7683733 0 0 1 -0.223487,-0.5614 2.0448304,2.0448304 0 0 1 -0.0068,-0.49944 12.864796,12.864796 0 0 1 0.58785,-3.04631 c 0.0041,0.0143 0.0081,0.0271 0.01352,0.0407 l 0.02232,0.0688 0.125512,0.76422 c 0.05302,-0.20338 -0.01352,-0.41734 -0.07723,-0.61753 -0.01637,-0.0487 -0.03233,-0.0975 -0.04815,-0.14669 l -0.0238,-0.1467 c -0.0041,0.0108 -0.0081,0.025 -0.01082,0.0371 -0.06032,-0.1859 -0.120778,-0.37074 -0.165235,-0.5635 l 0.108606,-0.025 a 0.5047199,0.5047199 0 0 0 0.117126,0.23092 0.8675039,0.8675039 0 0 0 0.402504,0.23462 l 0.07033,0.053 a 0.37072815,0.37072815 0 0 0 -0.07141,0.15888 0.16206116,0.16206116 0 0 0 0.10279,0.18484 c 0.07304,0.0176 0.143,-0.0356 0.192244,-0.0917 0.147233,-0.16577 0.225097,-0.38292 0.367569,-0.55291 0.190635,-0.22614 0.476647,-0.34584 0.749379,-0.45758 a 0.16947573,0.16947573 0 0 1 0.06357,-0.017 h 0.01082 a 0.15199854,0.15199854 0 0 1 0.07466,0.0425 l 0.04666,0.0403 -0.08521,0.11753 c -0.158878,0.0365 -0.28865,0.15412 -0.40886,0.26481 -0.08791,0.0816 -0.180086,0.1949 -0.156255,0.30135 z"
       id="path2646-8-9"
       style="fill:#999999;stroke-width:0.0529609" />
    <path
       class="cls-1"
       d="m 25.370726,270.49356 0.03395,0.0254 -0.0081,0.0108 q -0.206553,0.27484 -0.412566,0.55078 c -0.01082,0.0158 -0.02326,0.0312 -0.03435,0.0477 l -0.0706,-0.053 a 0.8675039,0.8675039 0 0 1 -0.402503,-0.23463 0.5047199,0.5047199 0 0 1 -0.115909,-0.23091 0.3855573,0.3855573 0 0 1 0.01082,-0.20655 0.77852918,0.77852918 0 0 1 0.164179,-0.23937 q 0.1684,-0.19278 0.317756,-0.4025 l 0.01704,0.0135 a 1.0062622,1.0062622 0 0 0 0.500479,0.71921 z"
       id="path2648-9-7"
       style="fill:#999999;stroke-width:0.0529609" />
    <path
       class="cls-1"
       d="m 34.500161,258.73195 a 0.06090534,0.06090534 0 0 0 0.0068,-0.008 0.04395777,0.04395777 0 0 0 0.03598,-0.045 0.04607621,0.04607621 0 0 0 -0.03435,-0.036 v -0.0254 a 0.03283591,0.03283591 0 0 0 -0.01447,0 0.05772767,0.05772767 0 0 0 -0.04977,0.0407 c 0,0 0,0 0,0.003 a 0.02806942,0.02806942 0 0 0 -0.0027,0.009 h -0.0081 a 0.13928788,0.13928788 0 0 0 -0.02015,0.081 c 0.0054,0.0281 0.03557,0.053 0.06086,0.0414 a 0.05984611,0.05984611 0 0 0 0.02651,-0.0592 z m -2.796346,6.90613 c -0.720787,0.77218 -1.454315,1.55495 -2.33824,2.12745 q -0.120779,0.0788 -0.245736,0.15147 a 3.2872995,3.2872995 0 0 1 -0.827783,0.35907 1.9373193,1.9373193 0 0 1 -0.37444,0.0605 l -0.0142,0.0238 -0.0376,-0.0223 c -0.292357,0.2648 -0.582576,0.52961 -0.885522,0.78648 -0.247318,0.21184 -0.49941,0.41467 -0.761038,0.6064 a 4.331164,4.331164 0 0 0 -0.461296,0.36438 3.4324132,3.4324132 0 0 0 -0.353773,0.42367 l -0.03395,-0.0254 a 1.0062622,1.0062622 0 0 1 -0.50102,-0.71919 l -0.01704,-0.0135 q -0.149357,0.20866 -0.31777,0.4025 a 0.77852918,0.77852918 0 0 0 -0.164193,0.23939 0.3855573,0.3855573 0 0 0 -0.01082,0.20654 l -0.108471,0.025 a 2.8900907,2.8900907 0 0 1 -0.06154,-0.34954 c 0,-0.007 0,-0.018 0.0054,-0.0216 l 0.0054,0.0174 v -0.007 c 0.0081,0.003 0.0054,-0.0149 -0.0027,-0.0108 v 0 l -0.0068,-0.0227 c -0.05302,-0.11497 -0.05302,-0.24839 -0.04247,-0.3755 0.04923,-0.78012 0.228802,-1.54806 0.470832,-2.29163 0.12497,-0.38345 0.270094,-0.76687 0.512664,-1.08887 0.105901,-0.13977 0.228248,-0.26482 0.335231,-0.40463 0.152007,-0.19754 0.273827,-0.4237 0.456536,-0.59053 0.124565,-0.11496 0.273286,-0.20071 0.395092,-0.31777 a 2.081374,2.081374 0 0 0 0.27434,-0.358 q 0.179531,-0.26906 0.358548,-0.53915 l 0.07249,-0.026 h 0.0054 l 0.09427,-0.0338 0.05031,-0.0269 c -0.0095,0 -0.0211,0.004 -0.03178,0.007 l 0.158878,-0.0757 0.264806,-0.32411 a 1.5358737,1.5358737 0 0 0 -0.143,0.22295 c -0.04436,0.0837 -0.08047,0.18907 -0.02854,0.26799 l 0.433232,-0.0487 a 0.8081874,0.8081874 0 0 1 -0.15359,-0.51002 c 0,-0.005 0,-0.0135 0,-0.0191 a 2.4595164,2.4595164 0 0 1 0.101167,-0.55133 2.2815669,2.2815669 0 0 1 0.175825,-0.5026 c 0.127676,-0.23885 0.335244,-0.42368 0.538092,-0.60376 l 0.762092,-0.67949 c 0.154131,-0.13606 0.31777,-0.27805 0.522213,-0.313 a 0.67154756,0.67154756 0 0 1 0.149357,-0.007 l 0.547086,0.0868 q -0.168427,-0.0318 -0.337368,-0.0603 a 1.7593698,1.7593698 0 0 0 -0.211855,-0.0265 l -0.123348,-0.0196 0.13663,-0.0678 -0.0238,0.0145 a 2.9022717,2.9022717 0 0 0 0.803952,-0.51638 2.5421359,2.5421359 0 0 1 0.275923,-0.23674 c 0.135115,-0.0905 0.292356,-0.14192 0.43376,-0.22296 0.327305,-0.18801 0.547627,-0.5238 0.868561,-0.72186 0.234091,-0.14405 0.51161,-0.20919 0.738803,-0.36439 0.23781,-0.1631 0.40464,-0.4152 0.642964,-0.5778 0.295521,-0.20124 0.669947,-0.24467 0.991963,-0.40038 0.179004,-0.0864 0.341601,-0.20707 0.529612,-0.27699 0.188011,-0.0699 0.413635,-0.0799 0.568266,0.0456 l -0.0095,0.007 c 0.158351,-0.10171 0.361726,-0.10901 0.551333,-0.1128 0.262155,-0.005 0.529611,-0.008 0.781704,0.0632 0.525364,0.14937 0.900345,0.59847 1.243528,1.02375 0.262168,0.32624 0.52696,0.65673 0.699093,1.03803 0.199142,0.44223 0.264806,0.93266 0.284931,1.41726 a 7.5549103,7.5549103 0 0 1 -0.0449,1.26207 c -0.03381,0.27326 -0.0848,0.54549 -0.09386,0.82142 a 2.739681,2.739681 0 0 0 0.549223,1.72705 l -0.02069,-0.0142 a 1.5226336,1.5226336 0 0 1 -0.01217,0.81401 0.72556794,0.72556794 0 0 0 -0.04301,0.19649 0.58892816,0.58892816 0 0 0 0.04869,0.20391 l 0.174242,0.46869 c 0.06776,0.18325 0.129164,0.40833 0,0.55664 -0.05302,0.0615 -0.136629,0.1059 -0.145109,0.18799 a 0.26480583,0.26480583 0 0 0 0.05829,0.1589 c 0.270094,0.44911 0.141337,1.02692 0.264793,1.53588 0.09792,0.40672 0.355382,0.75998 0.461824,1.16514 0.111175,0.42369 0.05302,0.88074 0.18325,1.29807 v 0 l 0.279643,1.05922 c 0.120237,0.45494 0.251551,0.92895 0.502588,1.31927 l -0.129163,0.0901 c -0.317756,-0.50896 -0.540202,-1.08784 -0.752585,-1.65399 a 4.1309709,4.1309709 0 0 1 -0.148288,-0.44486 c -0.101167,-0.40092 -0.0821,-0.82037 -0.06235,-1.23348 l -0.225083,0.15305 c -0.195977,-0.48724 -0.393509,-0.97871 -0.476661,-1.49666 -0.103196,-0.62706 -0.03976,-1.27955 -0.209191,-1.89178 l 0.145637,-0.81085 -0.138766,-0.46445 a 1.081467,1.081467 0 0 0 -0.09386,-0.24204 c -0.03963,-0.0694 -0.09481,-0.12917 -0.131868,-0.19966 a 0.9294685,0.9294685 0 0 1 -0.06668,-0.1912 c -0.03287,-0.12294 -0.06627,-0.24572 -0.09914,-0.36807 -0.17105,-0.63554 -0.343183,-1.27955 -0.332579,-1.93679 0.0068,-0.59422 0.166289,-1.17785 0.166289,-1.77103 a 3.3333758,3.3333758 0 0 0 -0.347943,-1.47868 0.43587038,0.43587038 0 0 0 -0.150953,-0.19224 c -0.07993,-0.0471 -0.191175,-0.0496 -0.240974,-0.12768 a 0.11333689,0.11333689 0 0 1 0.02502,0.0784 l -0.03909,-0.0298 c -0.601119,-0.20339 -1.257824,-0.007 -1.853654,0.21183 a 4.3242792,4.3242792 0 0 0 -0.834654,0.38767 c -0.596358,0.38134 -0.989854,1.00204 -1.363752,1.60261 a 3.6696792,3.6696792 0 0 0 -0.345834,0.64878 c -0.06086,0.16364 -0.09846,0.3363 -0.172646,0.49413 a 2.2858039,2.2858039 0 0 1 -0.24629,0.38397 l -1.665089,2.25455 z m -2.040055,-2.4325 c -0.0095,-0.009 -0.02069,-0.0211 -0.03124,-0.0312 l -0.0142,0.009 a 1.0253281,1.0253281 0 0 0 -0.365959,-0.28332 0.51425292,0.51425292 0 0 0 -0.0752,-0.0291 1.408767,1.408767 0 0 0 -0.609057,0.55291 v 0 a 0.173183,0.173183 0 0 0 -0.05302,0.0975 1.2022185,1.2022185 0 0 0 -0.102249,0.31777 1.2302879,1.2302879 0 0 0 -0.01637,0.1647 0.5672141,0.5672141 0 0 0 -0.0081,0.0975 0.55026649,0.55026649 0 0 0 0.02164,0.15889 1.7170009,1.7170009 0 0 0 0.05775,0.2611 c 0.0142,0.0482 0.0307,0.0958 0.04977,0.14249 l -0.02908,0.007 a 0.58257281,0.58257281 0 0 0 -0.129839,0.30873 0.59475388,0.59475388 0 0 0 0.101707,0.41736 l 0.09319,0.0921 c 0.04436,-0.0281 0.08832,-0.0572 0.131868,-0.0868 0.105901,-0.0747 0.211856,-0.15412 0.31777,-0.23303 l 0.118073,-0.089 0.01434,0.0185 a 2.3859003,2.3859003 0 0 1 0.932101,-0.15889 l 0.05883,0.008 c 0.09427,-0.14459 0.181667,-0.295 0.28228,-0.43481 0.01542,-0.0211 0.0307,-0.0418 0.04707,-0.0624 l -0.0142,-0.009 c -0.08521,0.0269 -0.135115,-0.1059 -0.219781,-0.13349 -0.05762,-0.0202 -0.119697,0.0135 -0.172133,0.0429 l -0.406723,0.2394 c -0.0821,0.15888 -0.231981,0.27487 -0.376036,0.38343 l -0.0917,0.0688 -0.09116,-0.12078 a 1.6004864,1.6004864 0 0 0 0.448043,-0.5381 h 0.01799 a 2.3832524,2.3832524 0 0 1 0.158878,-0.74516 c 0.03178,-0.0811 0.06938,-0.16736 0.05613,-0.25634 a 0.32306309,0.32306309 0 0 0 -0.101708,-0.17795 z"
       id="path2650-2-3"
       style="fill:#999999;stroke-width:0.0529609" />
    <path
       class="cls-8"
       d="m 27.373181,264.33048 a 1.5046267,1.5046267 0 0 0 -0.645601,1.05445 0.4046233,0.4046233 0 0 0 0.0054,0.16737 0.4236893,0.4236893 0 0 0 0.173715,0.20336 1.9865733,1.9865733 0 0 0 0.344251,0.19808 0.40091601,0.40091601 0 0 0 0.152548,0.0439 0.42898546,0.42898546 0 0 0 0.153577,-0.0307 4.5239429,4.5239429 0 0 0 0.996196,-0.47399 c 0.04436,-0.0281 0.08832,-0.0572 0.131869,-0.0868 0.105901,-0.0747 0.211869,-0.15414 0.317783,-0.23304 l 0.118073,-0.089 0.05302,-0.0403 0.0917,-0.0688 c 0.144054,-0.10847 0.293938,-0.2235 0.376021,-0.38346 0.0027,-0.005 0.0054,-0.0108 0.0081,-0.017"
       id="path2652-6-6"
       style="fill:none;stroke:#1d1d1b;stroke-width:0.0794419px;stroke-miterlimit:10" />
    <path
       class="cls-8"
       d="m 24.451311,271.3081 -0.0238,-0.1467 c -0.0041,0.0108 -0.0081,0.025 -0.01082,0.0371 a 12.864796,12.864796 0 0 0 -0.585227,3.04634 2.0448304,2.0448304 0 0 0 0.0081,0.49941 1.7683733,1.7683733 0 0 0 0.223487,0.56139 c 0.480895,0.8474 1.227109,1.50676 1.959568,2.14917 0.140335,0.12334 0.284404,0.24892 0.458105,0.31777 a 1.6312038,1.6312038 0 0 0 0.446473,0.0864 l 3.182958,0.313 c 0.557676,0.053 1.126496,0.10847 1.673041,-0.0122 L 31.582482,278.039 a 3.1633705,3.1633705 0 0 0 1.136546,0.24523 c 0.166303,0.004 0.333134,-0.004 0.498355,0.0122 0.155727,0.0158 0.308775,0.053 0.465016,0.0672 0.258977,0.0218 0.517953,-0.0276 0.773237,-0.0768 l 1.262071,-0.24256 0.08737,-0.017 -0.01961,0.0583 c 0.275924,0.053 0.554498,0.0883 0.833599,0.1128 a 9.2152426,9.2152426 0 0 0 3.310079,-0.30982 5.862801,5.862801 0 0 0 0.996724,-0.37444 c 0.494135,-0.24415 0.935821,-0.57462 1.238226,-1.03062 0.155199,-0.23356 0.267984,-0.49308 0.423697,-0.72663 0.06722,-0.10062 0.14511,-0.21556 0.112258,-0.33207 -0.01961,-0.0694 -0.0756,-0.12173 -0.114422,-0.18271 a 1.2673606,1.2673606 0 0 1 -0.09954,-0.24468 c -0.0041,-0.0108 -0.0081,-0.0233 -0.0142,-0.035 -0.130786,-0.3056 -0.450693,-0.47666 -0.692723,-0.70493 a 1.8859471,1.8859471 0 0 1 -0.294466,-0.35853 c -0.25105,-0.39033 -0.382392,-0.86434 -0.502615,-1.31927 l -0.279629,-1.05923 c -0.0081,-0.0291 -0.01542,-0.0583 -0.0234,-0.0874"
       id="path2654-6-1"
       style="fill:none;stroke:#1d1d1b;stroke-width:0.0794419px;stroke-miterlimit:10" />
    <path
       class="cls-8"
       d="m 24.451311,271.3081 c 0.01582,0.0492 0.03178,0.0979 0.04815,0.1467 0.06506,0.20021 0.130786,0.41417 0.07736,0.61753 z"
       id="path2656-4-2"
       style="fill:none;stroke:#1d1d1b;stroke-width:0.0794419px;stroke-miterlimit:10" />
    <path
       class="cls-8"
       d="m 24.201342,270.28649 v -0.005 -0.007 c 0.0081,0.003 0.0054,-0.0149 -0.0027,-0.0108 v 0 c -0.0054,0.003 -0.0068,0.0143 -0.0054,0.0218 a 2.8900907,2.8900907 0 0 0 0.06154,0.34954 c 0.04436,0.19012 0.105901,0.37762 0.165249,0.5635 0.0041,0.0143 0.0081,0.0269 0.01353,0.0407 l 0.02232,0.0688"
       id="path2658-9-9"
       style="fill:none;stroke:#1d1d1b;stroke-width:0.0794419px;stroke-miterlimit:10" />
    <path
       class="cls-8"
       d="m 27.025224,264.24839 -0.07249,0.026 q -0.178476,0.2701 -0.358561,0.53916 a 2.081374,2.081374 0 0 1 -0.278033,0.35854 c -0.12186,0.11712 -0.270649,0.20285 -0.395106,0.31777 -0.182709,0.16948 -0.304515,0.39297 -0.456522,0.59051 -0.105901,0.13878 -0.229857,0.26481 -0.335244,0.40462 -0.242557,0.32201 -0.387667,0.70545 -0.512651,1.08889 -0.242043,0.74146 -0.423697,1.51151 -0.470832,2.29164 -0.0081,0.12713 -0.01082,0.26055 0.04247,0.37546 l 0.0068,0.0227 0.0054,0.0176"
       id="path2660-5-3"
       style="fill:#999999;stroke:#1d1d1b;stroke-width:0.0794419px;stroke-miterlimit:10" />
    <path
       class="cls-8"
       d="m 27.025224,264.24839 a 0.35907672,0.35907672 0 0 1 0.118614,-0.0561 c 0.0095,-0.003 0.0211,-0.005 0.03178,-0.007 l -0.05031,0.0269 -0.09427,0.0338"
       id="path2662-0-1"
       style="fill:none;stroke:#1d1d1b;stroke-width:0.0794419px;stroke-miterlimit:10" />
    <path
       class="cls-8"
       d="m 27.564912,263.79238 -0.26482,0.32412 -0.158891,0.0756 -0.112799,0.053 h -0.0054 -0.0027"
       id="path2664-4-9"
       style="fill:none;stroke:#1d1d1b;stroke-width:0.0794419px;stroke-miterlimit:10" />
    <polyline
       class="cls-8"
       points="72.56 116.43 72.55 116.44 71.56 117.67"
       id="polyline2666-8-4"
       style="fill:none;stroke:#1d1d1b;stroke-width:1.5px;stroke-miterlimit:10"
       transform="matrix(0.05296116,0,0,0.05296116,23.777644,257.55728)" />
    <path
       class="cls-8"
       d="m 27.567536,263.78921 q 0.02543,-0.0334 0.05302,-0.0651"
       id="path2668-7-7"
       style="fill:none;stroke:#1d1d1b;stroke-width:0.0794419px;stroke-miterlimit:10" />
    <path
       class="cls-8"
       d="m 27.567536,263.78921 v 0.003"
       id="path2670-1-8"
       style="fill:none;stroke:#1d1d1b;stroke-width:0.0794419px;stroke-miterlimit:10" />
    <path
       class="cls-8"
       d="m 29.924319,261.05271 a 0.67154756,0.67154756 0 0 0 -0.149343,0.007 c -0.202848,0.0349 -0.368083,0.17689 -0.5222,0.31301 l -0.761578,0.6747 c -0.202848,0.17956 -0.410443,0.36492 -0.538092,0.60379 a 2.2815669,2.2815669 0 0 0 -0.175825,0.50258 2.4595164,2.4595164 0 0 0 -0.101167,0.55134 c 0,0.005 0,0.0135 0,0.0191 a 0.8081874,0.8081874 0 0 0 0.153576,0.51001 l -0.433205,0.0487 c -0.05302,-0.079 -0.01582,-0.1843 0.02854,-0.26798 a 1.5358737,1.5358737 0 0 1 0.142999,-0.22298"
       id="path2672-7-4"
       style="fill:#999999;stroke:#1d1d1b;stroke-width:0.0794419px;stroke-miterlimit:10" />
    <path
       class="cls-8"
       d="m 29.924319,261.05271 0.547086,0.0868 q -0.168414,-0.0318 -0.337354,-0.0603 a 1.7593698,1.7593698 0 0 0 -0.209732,-0.0265 z"
       id="path2674-2-5"
       style="fill:none;stroke:#1d1d1b;stroke-width:0.0794419px;stroke-miterlimit:10" />
    <path
       class="cls-8"
       d="m 40.698216,271.52102 c -0.131868,-0.41735 -0.07209,-0.8744 -0.18325,-1.29809 -0.1059,-0.40462 -0.363835,-0.75788 -0.461824,-1.16514 -0.122942,-0.50949 0.0054,-1.0873 -0.264806,-1.53587 a 0.26480583,0.26480583 0 0 1 -0.05829,-0.15889 c 0.0081,-0.0805 0.09265,-0.1266 0.145123,-0.188 0.127135,-0.1483 0.06573,-0.37338 0,-0.55663 l -0.174243,-0.46871 a 0.58892816,0.58892816 0 0 1 -0.04869,-0.20389 0.72556794,0.72556794 0 0 1 0.04301,-0.19649 1.5226336,1.5226336 0 0 0 0.01217,-0.81402 l 0.02069,0.0142 a 2.739681,2.739681 0 0 1 -0.550995,-1.72497 c 0.0081,-0.27593 0.05978,-0.54816 0.09373,-0.82143 a 7.5549103,7.5549103 0 0 0 0.04504,-1.26206 c -0.0211,-0.48461 -0.08588,-0.97503 -0.284931,-1.41725 -0.172132,-0.38133 -0.436938,-0.7118 -0.699093,-1.03805 -0.342128,-0.42367 -0.718163,-0.87437 -1.243541,-1.02372 -0.252606,-0.0715 -0.519536,-0.0672 -0.78169,-0.0624 -0.191203,0.003 -0.392969,0.009 -0.55397,0.1128 l 0.0095,-0.007 c -0.154658,-0.12551 -0.382392,-0.1155 -0.568279,-0.0456 -0.185888,0.0698 -0.349013,0.19065 -0.529625,0.27698 -0.32199,0.15571 -0.696429,0.19913 -0.99195,0.40039 -0.238337,0.1626 -0.405168,0.41469 -0.642951,0.5778 -0.227206,0.15519 -0.504725,0.22033 -0.738802,0.36438 -0.320948,0.19806 -0.54127,0.53384 -0.868562,0.72186 -0.141349,0.0811 -0.298713,0.13241 -0.43376,0.22297 a 2.5421359,2.5421359 0 0 0 -0.273272,0.23673 2.9022717,2.9022717 0 0 1 -0.800774,0.51689 l 0.0238,-0.0143 -0.136629,0.0678 0.123347,0.0196"
       id="path2676-7-0"
       style="fill:none;stroke:#1d1d1b;stroke-width:0.0794419px;stroke-miterlimit:10" />
    <path
       class="cls-8"
       d="m 34.506531,258.64987 a 0.01641797,0.01641797 0 0 0 -0.0068,-0.003 v 0"
       id="path2678-2-3"
       style="fill:none;stroke:#1d1d1b;stroke-width:0.0794419px;stroke-miterlimit:10" />
    <path
       class="cls-8"
       d="m 34.478439,258.71235 a 0.02171408,0.02171408 0 0 0 0.01082,0 0.0090034,0.0090034 0 0 0 0.0054,0 v 0 a 0.02330292,0.02330292 0 0 0 0.01082,-0.007 0.02648059,0.02648059 0 0 0 0.0081,-0.0154 0.03495437,0.03495437 0 0 0 -0.0068,-0.0344 c 0,0 0,0 0,0 v 0"
       id="path2680-2-6"
       style="fill:none;stroke:#1d1d1b;stroke-width:0.0794419px;stroke-miterlimit:10" />
    <path
       class="cls-8"
       d="m 34.444032,258.66098 a 0.02859903,0.02859903 0 0 0 0,0.009 0.01482912,0.01482912 0 0 0 0,0.005 0.04872427,0.04872427 0 0 0 0.01799,0.0285 0.00529611,0.00529611 0 0 0 0.0027,0 l 0.0054,0.004 h 0.0068"
       id="path2682-6-1"
       style="fill:none;stroke:#1d1d1b;stroke-width:0.0794419px;stroke-miterlimit:10" />
    <path
       class="cls-8"
       d="m 34.509168,258.67687 c 0,-0.007 0,-0.0149 0,-0.0223 a 0.02012525,0.02012525 0 0 1 0,-0.007 0.00317767,0.00317767 0 0 1 0,-0.003 v -0.0269 a 0.03283591,0.03283591 0 0 0 -0.0142,0 0.05772767,0.05772767 0 0 0 -0.04977,0.0407"
       id="path2684-1-0"
       style="fill:none;stroke:#1d1d1b;stroke-width:0.0794419px;stroke-miterlimit:10" />
    <path
       class="cls-8"
       d="m 34.489584,258.71393 h 0.0068 a 0.03548398,0.03548398 0 0 0 0.01352,-0.005 v -0.0298"
       id="path2686-0-6"
       style="fill:none;stroke:#1d1d1b;stroke-width:0.0794419px;stroke-miterlimit:10" />
    <path
       class="cls-8"
       d="m 34.464157,258.70758 h 0.0027 a 0.01059223,0.01059223 0 0 0 0.0041,0 0.01429951,0.01429951 0 0 0 0.0054,0 c 0,0 0,0 0,0 a 0.02330292,0.02330292 0 0 0 0.0095,0"
       id="path2688-6-3"
       style="fill:none;stroke:#1d1d1b;stroke-width:0.0794419px;stroke-miterlimit:10" />
    <path
       class="cls-8"
       d="m 34.468377,258.6345 a 0.05296116,0.05296116 0 0 0 -0.02272,0.0216 c 0,0 0,0 0,0.003 a 0.02806942,0.02806942 0 0 0 -0.0027,0.009 v 0.003 a 0.01165147,0.01165147 0 0 0 0,0.004 0.03919125,0.03919125 0 0 0 0.02232,0.0298"
       id="path2690-1-2"
       style="fill:none;stroke:#1d1d1b;stroke-width:0.0794419px;stroke-miterlimit:10" />
    <path
       class="cls-8"
       d="m 34.511278,258.65886 a 0.01482912,0.01482912 0 0 0 0,-0.005 0.05825728,0.05825728 0 0 0 0,-0.009 0.00741457,0.00741457 0 0 0 0,-0.003 0.01588834,0.01588834 0 0 0 0,-0.005 0.0270102,0.0270102 0 0 0 -0.0081,-0.003 0.04130972,0.04130972 0 0 0 -0.02976,0"
       id="path2692-5-0"
       style="fill:none;stroke:#1d1d1b;stroke-width:0.0794419px;stroke-miterlimit:10" />
    <path
       class="cls-8"
       d="m 34.462047,258.697 a 0.04130972,0.04130972 0 0 0 0.0081,0.0135 c 0,0 0,0 0,0 l 0.0054,0.003 0.0081,0.005 a 0.0185364,0.0185364 0 0 0 0.0054,-0.005 v 0 c 0,0 0,0 0,0 a 0.01641797,0.01641797 0 0 0 0.0054,-0.005 0.08897476,0.08897476 0 0 0 0.0142,-0.0298 v 0 a 0.06567185,0.06567185 0 0 0 0,-0.0174"
       id="path2694-9-6"
       style="fill:none;stroke:#1d1d1b;stroke-width:0.0794419px;stroke-miterlimit:10" />
    <path
       class="cls-8"
       d="m 34.458328,258.6864 a 0.03283591,0.03283591 0 0 0 0.0027,0.009"
       id="path2696-4-1"
       style="fill:none;stroke:#1d1d1b;stroke-width:0.0794419px;stroke-miterlimit:10" />
    <path
       class="cls-8"
       d="m 34.481104,258.62337 a 0.03548398,0.03548398 0 0 0 -0.01353,0.0108 v 0 a 0.05296116,0.05296116 0 0 0 -0.01217,0.035 v 0.003 a 0.04025049,0.04025049 0 0 0 0,0.0108"
       id="path2698-9-5"
       style="fill:none;stroke:#1d1d1b;stroke-width:0.0794419px;stroke-miterlimit:10" />
    <path
       class="cls-8"
       d="m 34.508113,258.72241 a 0.04395777,0.04395777 0 0 0 0.03598,-0.045 0.04607621,0.04607621 0 0 0 -0.03435,-0.036 v 0 a 0.03018787,0.03018787 0 0 0 -0.0095,0 0.03707282,0.03707282 0 0 0 -0.0211,0.005 0.04025049,0.04025049 0 0 0 -0.01799,0.0242 c 0,0 0,0 0,0.003 a 0.03972086,0.03972086 0 0 0 0,0.0108 0.00688495,0.00688495 0 0 0 0,0.003 0.02859903,0.02859903 0 0 0 0.0041,0.0174 0.0047665,0.0047665 0 0 0 0,0.003 v 0 a 0.03442475,0.03442475 0 0 0 0.0081,0.009 c 0,0 0,0 0,0 0,0 0,0 0,0 v 0 a 0.05666844,0.05666844 0 0 0 0.01082,-0.0196 0.10592233,0.10592233 0 0 0 0.01082,-0.0456 v -0.003 a 0.0090034,0.0090034 0 0 0 0,-0.003 0.03760242,0.03760242 0 0 0 0,-0.007 0.0953301,0.0953301 0 0 0 -0.0027,-0.017 v 0"
       id="path2700-0-5"
       style="fill:none;stroke:#1d1d1b;stroke-width:0.0794419px;stroke-miterlimit:10" />
    <path
       class="cls-8"
       d="m 34.469445,258.66946 h -0.01217 -0.01217 -0.0027 -0.0081 a 0.13928788,0.13928788 0 0 0 -0.02015,0.0809 c 0.0054,0.0281 0.03557,0.053 0.06086,0.0414 a 0.05984611,0.05984611 0 0 0 0.02664,-0.0592 v -0.003 a 0.0407801,0.0407801 0 0 0 0,-0.008 0.08208981,0.08208981 0 0 0 0,-0.0108 0.01271068,0.01271068 0 0 0 0,-0.004 0.05719805,0.05719805 0 0 0 -0.0068,-0.0154 0.03813203,0.03813203 0 0 0 -0.02435,-0.0189 h -0.0054 -0.0027 a 0.02912863,0.02912863 0 0 0 -0.01082,0.003 v 0 a 0.03919125,0.03919125 0 0 0 -0.0054,0.0567 0.04925388,0.04925388 0 0 0 0.06411,0 0.06090534,0.06090534 0 0 0 0.0068,-0.008 0.06302378,0.06302378 0 0 0 0.0095,-0.034 0.07255679,0.07255679 0 0 0 -0.0054,-0.0291 c 0,0 0,0 0,0 v -0.004 a 0.02965826,0.02965826 0 0 0 0,-0.004 0.03972086,0.03972086 0 0 0 -0.0027,-0.005 h -0.0027 a 0.03813203,0.03813203 0 0 0 -0.03327,0.025 0.01906601,0.01906601 0 0 0 0,0.005 0.04342816,0.04342816 0 0 0 0,0.0233 v 0 a 0.03071748,0.03071748 0 0 0 0.0027,0.008 c 0,0 0,0 0,0 a 0.03018787,0.03018787 0 0 0 0.0054,0.008 v 0 a 0.03389514,0.03389514 0 0 0 0.02543,0.007 0.01588834,0.01588834 0 0 0 0.0081,0"
       id="path2702-9-4"
       style="fill:none;stroke:#1d1d1b;stroke-width:0.0794419px;stroke-miterlimit:10" />
    <path
       class="cls-8"
       d="m 34.496996,258.4232 a 0.26480583,0.26480583 0 0 0 -0.177962,0.053 1.1699122,1.1699122 0 0 0 -0.531722,1.1196"
       id="path2704-1-7"
       style="fill:none;stroke:#1d1d1b;stroke-width:0.0794419px;stroke-miterlimit:10" />
    <path
       class="cls-8"
       d="m 28.567465,263.42643 c -0.01853,0.0318 -0.03598,0.0641 -0.05302,0.0975 a 1.2022185,1.2022185 0 0 0 -0.102249,0.31778 1.2302879,1.2302879 0 0 0 -0.01637,0.16469 1.4267739,1.4267739 0 0 0 0.01434,0.25582 1.7170009,1.7170009 0 0 0 0.05762,0.2611 c 0.0142,0.0481 0.0307,0.0958 0.04977,0.14248 a 1.1444908,1.1444908 0 0 0 0.242557,0.38291"
       id="path2706-7-6"
       style="fill:none;stroke:#1d1d1b;stroke-width:0.0794419px;stroke-miterlimit:10" />
    <path
       class="cls-8"
       d="m 29.260729,262.83697 c -0.02813,0.0108 -0.05302,0.0233 -0.08331,0.0356 a 1.408767,1.408767 0 0 0 -0.609044,0.55292"
       id="path2708-7-5"
       style="fill:none;stroke:#1d1d1b;stroke-width:0.0794419px;stroke-miterlimit:10" />
    <path
       class="cls-8"
       d="m 28.515029,263.52918 c 0,0 0,-0.003 0,-0.005 a 0.173183,0.173183 0 0 1 0.05302,-0.0975 v 0 a 0.55397379,0.55397379 0 0 1 0.05302,-0.0482 0.45334755,0.45334755 0 0 1 0.14672,-0.0948 c 0.139348,-0.0456 0.286513,0.053 0.380255,0.16312 0.207081,0.24785 0.277532,0.58256 0.287568,0.90616 a 0.52961166,0.52961166 0 0 1 -0.01637,0.18006 0.32518153,0.32518153 0 0 1 -0.05302,0.0975 0.80553934,0.80553934 0 0 1 -0.278047,0.19965"
       id="path2710-1-6"
       style="fill:none;stroke:#1d1d1b;stroke-width:0.0794419px;stroke-miterlimit:10" />
    <path
       class="cls-8"
       d="m 29.650505,263.17433 a 0.08844513,0.08844513 0 0 1 0.01353,0.0679"
       id="path2712-1-9"
       style="fill:none;stroke:#1d1d1b;stroke-width:0.0794419px;stroke-miterlimit:10" />
    <path
       class="cls-8"
       d="m 29.645758,263.21882 c -0.0081,-0.0108 -0.01745,-0.0227 -0.02705,-0.0338 a 1.0253281,1.0253281 0 0 0 -0.365959,-0.28335 0.51425292,0.51425292 0 0 0 -0.0752,-0.0291 0.25421359,0.25421359 0 0 0 -0.131869,-0.007"
       id="path2714-5-3"
       style="fill:none;stroke:#1d1d1b;stroke-width:0.0794419px;stroke-miterlimit:10" />
    <path
       class="cls-8"
       d="m 29.737376,262.95454 a 2.1274497,2.1274497 0 0 0 -0.301877,-0.16788 c -0.119291,-0.053 -0.252093,-0.0974 -0.379214,-0.0667 a 0.53914468,0.53914468 0 0 0 -0.2362,0.14354 1.2747753,1.2747753 0 0 0 -0.356438,0.5974"
       id="path2716-9-7"
       style="fill:none;stroke:#1d1d1b;stroke-width:0.0794419px;stroke-miterlimit:10" />
    <path
       class="cls-8"
       d="m 29.514931,262.25968 a 4.5265909,4.5265909 0 0 0 -0.826201,0.32573 0.6678403,0.6678403 0 0 0 -0.164166,0.1059 0.59157622,0.59157622 0 0 0 -0.123889,0.20019 c -0.126053,0.29922 -0.163666,0.64613 -0.05302,0.95065"
       id="path2718-7-4"
       style="fill:none;stroke:#1d1d1b;stroke-width:0.0794419px;stroke-miterlimit:10" />
    <path
       class="cls-8"
       d="m 29.661109,263.19763 -0.02854,-0.0233 c 0.0095,0.009 0.0211,0.0206 0.03124,0.0312 a 0.32306309,0.32306309 0 0 1 0.101032,0.17795 c 0.01217,0.089 -0.02421,0.17531 -0.05613,0.25634 a 2.3832524,2.3832524 0 0 0 -0.158878,0.74516"
       id="path2720-7-5"
       style="fill:none;stroke:#1d1d1b;stroke-width:0.0794419px;stroke-miterlimit:10" />
    <path
       class="cls-8"
       d="m 28.491198,264.67472 a 0.58257281,0.58257281 0 0 0 -0.12984,0.30876 0.59475388,0.59475388 0 0 0 0.101708,0.41734"
       id="path2722-6-2"
       style="fill:none;stroke:#1d1d1b;stroke-width:0.0794419px;stroke-miterlimit:10" />
    <path
       class="cls-8"
       d="m 28.419163,264.99091 a 0.27275,0.27275 0 0 0 0.254216,0.12605 0.38714612,0.38714612 0 0 0 0.101167,-0.0185 0.77005534,0.77005534 0 0 0 0.17688,-0.083 c 0.04666,-0.0285 0.09102,-0.0592 0.134438,-0.0921 a 1.6004864,1.6004864 0 0 0 0.44807,-0.53809"
       id="path2724-7-5"
       style="fill:none;stroke:#1d1d1b;stroke-width:0.0794419px;stroke-miterlimit:10" />
    <path
       class="cls-8"
       d="m 29.214636,262.47895 0.247331,0.0372 a 0.99619949,0.99619949 0 0 1 0.272745,0.0683 0.49783495,0.49783495 0 0 1 0.243639,0.24573"
       id="path2726-3-4"
       style="fill:none;stroke:#1d1d1b;stroke-width:0.0794419px;stroke-miterlimit:10" />
    <path
       class="cls-8"
       d="m 26.429421,270.28543 a 0.24679901,0.24679901 0 0 1 -0.0027,-0.19119 0.73351212,0.73351212 0 0 1 0.09697,-0.17001 l 0.192786,-0.27752 a 2.6210481,2.6210481 0 0 0 0.292856,-0.49096"
       id="path2728-6-7"
       style="fill:none;stroke:#1d1d1b;stroke-width:0.0794419px;stroke-miterlimit:10" />
    <path
       class="cls-8"
       d="m 42.224024,275.11919 v -0.0269"
       id="path2730-5-4"
       style="fill:none;stroke:#1d1d1b;stroke-width:0.0794419px;stroke-miterlimit:10" />
    <path
       class="cls-8"
       d="m 29.378302,267.78884 c 0.02218,0.51106 0.20654,0.99991 0.388721,1.47814 q 0.148302,0.39086 0.298186,0.78223 a 3.4869631,3.4869631 0 0 0 0.158878,0.37075 c 0.07371,0.14249 0.165762,0.27484 0.237782,0.41785 0.300823,0.59899 0.211856,1.3092 0.287055,1.97546"
       id="path2732-6-4"
       style="fill:none;stroke:#1d1d1b;stroke-width:0.0794419px;stroke-miterlimit:10" />
    <path
       class="cls-8"
       d="m 29.519164,269.86596 c 0.466585,0.88658 0.673666,1.8828 0.990381,2.83343 0.140917,0.4237 0.334716,0.87652 0.730863,1.0836"
       id="path2734-3-3"
       style="fill:none;stroke:#1d1d1b;stroke-width:0.0794419px;stroke-miterlimit:10" />
    <path
       class="cls-8"
       d="m 27.154455,270.83093 1.725478,1.04651 a 3.2067987,3.2067987 0 0 1 0.403031,0.27329 3.2788256,3.2788256 0 0 1 0.308762,0.30981 l 1.034864,1.13762"
       id="path2736-9-0"
       style="fill:none;stroke:#1d1d1b;stroke-width:0.0794419px;stroke-miterlimit:10" />
    <path
       class="cls-8"
       d="m 31.274302,273.80947 c 0.29287,-0.0143 0.568793,0.0799 0.841024,0.19753 0.20389,0.0885 0.405682,0.18961 0.611168,0.26853 0.635539,0.24308 1.344167,0.27593 1.952156,0.57992 l 0.04071,0.0207 a 2.9033311,2.9033311 0 0 0 0.285458,0.13978 1.9346714,1.9346714 0 0 0 0.342129,0.0895 2.319699,2.319699 0 0 0 0.578869,0.0592 2.6268738,2.6268738 0 0 0 0.264806,-0.0356 l 0.476647,-0.0809 c 0.697498,-0.11861 1.396063,-0.23781 2.084025,-0.40464"
       id="path2738-4-7"
       style="fill:none;stroke:#1d1d1b;stroke-width:0.0794419px;stroke-miterlimit:10" />
    <path
       class="cls-8"
       d="m 36.177962,275.30298 q 0.52592,0.0858 1.059237,0.11916 a 6.8155726,6.8155726 0 0 0 0.964426,0 2.9457,2.9457 0 0 1 0.386098,-0.0192 c 0.18536,0.009 0.37072,0.0646 0.553957,0.0461 0.220849,-0.0227 0.423683,-0.14827 0.646129,-0.14883 0.16207,0 0.325709,0.0672 0.482477,0.0276 0.142485,-0.0365 0.254215,-0.15518 0.398257,-0.18378 0.120237,-0.0242 0.253701,0.0164 0.361739,-0.0414 0.118614,-0.0636 0.153062,-0.22614 0.112798,-0.35484 -0.0403,-0.12863 -0.137197,-0.23037 -0.230371,-0.32731 a 6.6084945,6.6084945 0 0 1 -0.635539,-0.73404 3.4032846,3.4032846 0 0 1 -0.595289,-2.38908"
       id="path2740-8-8"
       style="fill:none;stroke:#1d1d1b;stroke-width:0.0794419px;stroke-miterlimit:10" />
    <path
       class="cls-8"
       d="m 34.84072,274.84009 c 0.175297,-0.0672 0.296035,-0.22721 0.446974,-0.33895 a 1.8536408,1.8536408 0 0 1 0.273813,-0.15889 l 0.729808,-0.37072 1.109009,-0.5598 a 0.19701553,0.19701553 0 0 1 0.261627,0.0334 l 0.247859,0.18166 c 0.07574,0.0557 0.170009,0.11388 0.256853,0.0788 0.08683,-0.0349 0.11334,-0.13563 0.130381,-0.224 0.13878,-0.73618 0.134033,-1.49936 0.342142,-2.2191 0.06938,-0.23831 0.162043,-0.47401 0.17105,-0.72184 0.0081,-0.24788 -0.08791,-0.51902 -0.307693,-0.63554"
       id="path2742-1-6"
       style="fill:none;stroke:#1d1d1b;stroke-width:0.0794419px;stroke-miterlimit:10" />
    <path
       class="cls-8"
       d="m 33.654375,265.61373 a 3.0034278,3.0034278 0 0 1 0.06627,1.05923 c -0.0238,0.20336 -0.06884,0.40777 -0.04139,0.61116 0.01704,0.12335 0.05978,0.24203 0.08115,0.36437 a 3.0362635,3.0362635 0 0 1 0.02813,0.36067 3.3847483,3.3847483 0 0 0 0.264806,1.13338"
       id="path2744-2-8"
       style="fill:none;stroke:#1d1d1b;stroke-width:0.0794419px;stroke-miterlimit:10" />
    <path
       class="cls-8"
       d="m 32.834004,269.44546 c 0.191202,0.0425 0.38768,0.0847 0.582575,0.0561 a 1.2710679,1.2710679 0 0 0 0.529625,-0.23992 c 0.609057,-0.42845 1.031673,-1.06876 1.412996,-1.70799"
       id="path2746-9-8"
       style="fill:none;stroke:#1d1d1b;stroke-width:0.0794419px;stroke-miterlimit:10" />
    <path
       class="cls-8"
       d="m 34.322226,263.07105 c -0.49043,0.29606 -0.64667,0.92313 -0.747824,1.48717 q -0.260572,1.45006 -0.423684,2.9155 c -0.03909,0.34848 -0.0752,0.70014 -0.181126,1.03433 -0.08467,0.26904 -0.211842,0.52327 -0.278574,0.79814 a 3.5272136,3.5272136 0 0 0 -0.06884,0.61593 4.5117618,4.5117618 0 0 0 0.0081,0.85002 c 0.02854,0.20654 0.08575,0.40887 0.11645,0.61488 a 2.7481548,2.7481548 0 0 1 0.0054,0.74569 c -0.07723,0.64348 -0.347957,1.27373 -0.631806,1.86581"
       id="path2748-3-4"
       style="fill:none;stroke:#1d1d1b;stroke-width:0.0794419px;stroke-miterlimit:10" />
    <path
       class="cls-8"
       d="m 31.354275,269.23838 a 4.2644332,4.2644332 0 0 1 0.302933,-0.75734 c 0.100085,-0.17954 0.226665,-0.3453 0.305597,-0.53544 0.117532,-0.2828 0.127135,-0.6117 0.299754,-0.86487 a 2.1142098,2.1142098 0 0 0 0.152535,-0.21764 0.89557333,0.89557333 0 0 0 0.07317,-0.33633 l 0.04923,-0.57408"
       id="path2750-9-3"
       style="fill:none;stroke:#1d1d1b;stroke-width:0.0794419px;stroke-miterlimit:10" />
    <path
       class="cls-8"
       d="m 32.45057,265.7795 c -0.536495,0.33629 -0.856902,0.93106 -1.349969,1.32774 -0.292884,0.23566 -0.644534,0.40038 -0.892934,0.6816"
       id="path2752-0-1"
       style="fill:none;stroke:#1d1d1b;stroke-width:0.0794419px;stroke-miterlimit:10" />
    <path
       class="cls-8"
       d="m 34.703008,262.84598 -0.519562,0.56031 a 0.59104659,0.59104659 0 0 0 -0.08521,0.1059 0.53967428,0.53967428 0 0 0 -0.04964,0.13444 2.8143561,2.8143561 0 0 0 -0.09008,0.58259 0.36702087,0.36702087 0 0 0 0.02164,0.17316 0.39085339,0.39085339 0 0 0 0.137631,0.13978 l 0.217684,0.15889 c 0.06154,0.0444 0.139348,0.0905 0.208136,0.0588 a 0.21184467,0.21184467 0 0 0 0.09427,-0.14192 3.4069918,3.4069918 0 0 0 0.145651,-0.86432"
       id="path2754-8-4"
       style="fill:none;stroke:#1d1d1b;stroke-width:0.0794419px;stroke-miterlimit:10" />
    <path
       class="cls-8"
       d="m 34.63468,264.66731 c 0.228275,0.0356 0.476661,0.0678 0.676331,-0.0498 a 0.97766312,0.97766312 0 0 0 0.228247,-0.21183 c 0.185374,-0.21186 0.370747,-0.43165 0.476661,-0.6885 0.05829,-0.13977 0.08737,-0.31777 -0.01217,-0.42952 a 0.58733932,0.58733932 0 0 0 -0.142486,-0.10225 0.43269271,0.43269271 0 0 1 -0.08372,-0.0641 0.35060293,0.35060293 0 0 1 -0.06884,-0.32623 1.0269171,1.0269171 0 0 1 0.158892,-0.3093 0.635534,0.635534 0 0 1 0.203362,-0.22244 c 0.08832,-0.0492 0.215561,-0.0461 0.275936,0.0356 0.07249,0.097 0.01542,0.23357 -0.04301,0.33948 l -0.291802,0.52961"
       id="path2756-8-9"
       style="fill:none;stroke:#1d1d1b;stroke-width:0.0794419px;stroke-miterlimit:10" />
    <path
       class="cls-8"
       d="m 36.147261,262.14264 a 1.7233563,1.7233563 0 0 0 0.403558,-0.84737 c 0.02854,-0.16841 0.04558,-0.3649 0.187497,-0.45864 a 0.31776699,0.31776699 0 0 1 0.361726,0.0276 0.48406503,0.48406503 0 0 1 0.170523,0.33632 0.66889951,0.66889951 0 0 1 -0.137779,0.47665 c -0.05829,0.0741 -0.132274,0.13563 -0.186942,0.21183 -0.139348,0.19648 -0.131869,0.46077 -0.08426,0.69697 0.04774,0.23623 0.12984,0.46976 0.120778,0.71074 -0.01853,0.48407 -0.403045,0.94219 -0.270635,1.40825"
       id="path2758-5-2"
       style="fill:none;stroke:#1d1d1b;stroke-width:0.0794419px;stroke-miterlimit:10" />
    <path
       class="cls-8"
       d="m 36.876528,262.18131 c 0.220863,0.0142 0.448597,0.0318 0.646657,0.13187 0.198087,0.10008 0.360143,0.30294 0.343196,0.52378 a 0.83784561,0.83784561 0 0 1 -0.04396,0.18908 4.2988579,4.2988579 0 0 0 -0.193826,0.74993 c -0.03341,0.25685 -0.01434,0.5296 0.102248,0.75786"
       id="path2760-0-0"
       style="fill:none;stroke:#1d1d1b;stroke-width:0.0794419px;stroke-miterlimit:10" />
    <path
       class="cls-8"
       d="m 36.209219,265.57772 a 1.3203218,1.3203218 0 0 0 0.111851,0.86378 c 0.115909,0.22879 0.297631,0.41999 0.408861,0.65143 0.111175,0.23144 0.13295,0.53966 -0.05288,0.71868"
       id="path2762-9-6"
       style="fill:#9e6875;fill-opacity:1;stroke:#1d1d1b;stroke-width:0.0794419px;stroke-miterlimit:10" />
    <path
       class="cls-8"
       d="m 36.110703,265.53375 a 0.34424757,0.34424757 0 0 0 -0.03489,0.0145 c -0.172132,0.079 -0.283348,0.26108 -0.322544,0.44804 -0.04179,0.19914 -0.01434,0.4057 0.01217,0.60748 0.01961,0.14351 0.0403,0.29128 0.113745,0.41627 a 1.1391946,1.1391946 0 0 0 0.166303,0.20125 l 0.389249,0.39878 a 1.0592232,1.0592232 0 0 1 0.169482,0.21187 0.39403109,0.39403109 0 0 1 0.04977,0.14775"
       id="path2764-6-8"
       style="fill:none;stroke:#1d1d1b;stroke-width:0.0794419px;stroke-miterlimit:10" />
    <path
       class="cls-8"
       d="m 38.998693,265.49191 c 0.105901,-0.17901 -0.11929,-0.40833 -0.325708,-0.38079 -0.206554,0.0276 -0.35591,0.20655 -0.465017,0.38397 -0.271149,0.43905 -0.42367,0.98666 -0.260031,1.47602 0.04139,0.12241 0.102249,0.2394 0.127676,0.36596 0.07845,0.39299 -0.189607,0.75894 -0.380796,1.11219 a 3.1776699,3.1776699 0 0 0 -0.380269,1.51786 c 0.0027,0.69699 0.236742,1.39237 0.127135,2.08086"
       id="path2766-3-9"
       style="fill:none;stroke:#1d1d1b;stroke-width:0.0794419px;stroke-miterlimit:10" />
    <path
       class="cls-8"
       d="m 32.89703,272.14913 c 0.554511,0.22986 1.119599,0.46658 1.568709,0.86433 0.158892,0.14091 0.301351,0.30029 0.470305,0.42793 0.38131,0.28811 0.86591,0.39244 1.333564,0.48987"
       id="path2768-8-2"
       style="fill:none;stroke:#1d1d1b;stroke-width:0.0794419px;stroke-miterlimit:10" />
    <path
       class="cls-8"
       d="m 38.11635,270.07729 c 0.08521,-0.66625 0.165235,-1.37327 -0.11645,-1.98339"
       id="path2770-5-6"
       style="fill:none;stroke:#1d1d1b;stroke-width:0.0794419px;stroke-miterlimit:10" />
    <path
       class="cls-8"
       d="m 38.142305,267.69616 a 3.3815705,3.3815705 0 0 0 0.416272,0.46606 c 0.112257,0.0979 0.237282,0.18059 0.349553,0.27856 a 1.6571547,1.6571547 0 0 1 0.529598,0.93001"
       id="path2772-6-6"
       style="fill:none;stroke:#1d1d1b;stroke-width:0.0794419px;stroke-miterlimit:10" />
    <path
       class="cls-8"
       d="m 27.917616,268.33646 a 1.9373193,1.9373193 0 0 0 0.37444,-0.0605 3.2872995,3.2872995 0 0 0 0.827783,-0.35908 q 0.124565,-0.073 0.245736,-0.15147 c 0.883925,-0.57251 1.617453,-1.35527 2.33824,-2.12745 l -0.01488,0.036 1.665101,-2.25455 a 2.2858039,2.2858039 0 0 0 0.24625,-0.38398 c 0.07412,-0.15887 0.111852,-0.33048 0.17266,-0.49412 a 3.6696792,3.6696792 0 0 1 0.345847,-0.64878 c 0.373899,-0.60057 0.767395,-1.22129 1.363211,-1.6026 a 4.3242792,4.3242792 0 0 1 0.83625,-0.38608 c 0.595289,-0.22033 1.252022,-0.41682 1.853654,-0.21185 l 0.03909,0.0298 a 0.11333689,0.11333689 0 0 0 -0.02502,-0.0784 c 0.04977,0.0778 0.158891,0.0805 0.240988,0.12768 a 0.43587038,0.43587038 0 0 1 0.150925,0.19224 3.3333758,3.3333758 0 0 1 0.346362,1.47709 c 0,0.59317 -0.158878,1.17681 -0.167886,1.76945 -0.0095,0.65723 0.161529,1.30178 0.332607,1.93678 0.03286,0.1224 0.06627,0.24521 0.09914,0.36808 a 0.9294685,0.9294685 0 0 0 0.06668,0.19119 c 0.03706,0.0703 0.0921,0.13038 0.131869,0.19967 a 1.081467,1.081467 0 0 1 0.09386,0.24203 l 0.13878,0.46446 -0.144596,0.80872 c 0.169482,0.61223 0.105901,1.26472 0.209191,1.89178 0.08521,0.51796 0.282821,1.00943 0.476662,1.49667 l 0.225082,-0.15305 c -0.01961,0.4131 -0.03868,0.83255 0.06235,1.23347 a 4.1309709,4.1309709 0 0 0 0.148301,0.44486 c 0.211842,0.56616 0.433219,1.14503 0.752571,1.65399 a 3.6013591,3.6013591 0 0 0 0.505267,0.64242 2.1857074,2.1857074 0 0 1 0.28493,0.30929 0.70014659,0.70014659 0 0 1 0.05302,0.0975 0.51848982,0.51848982 0 0 1 0.02597,0.0694 0.41733398,0.41733398 0 0 1 0.01082,0.23198 l -0.120237,-0.13778 0.01704,-0.0135 a 0.37072815,0.37072815 0 0 0 0.0081,-0.15093 h 0.273272 a 0.57621748,0.57621748 0 0 1 -0.146705,0.32888 0.81242429,0.81242429 0 0 1 -0.159406,0.1446 c -0.164193,0.1059 -0.356438,0.16416 -0.545503,0.21713 -0.105901,0.0297 -0.211856,0.0592 -0.31777,0.0879 -0.817193,0.22034 -1.651333,0.39828 -2.494481,0.36173 -0.0403,0 -0.08034,-0.003 -0.120778,-0.007 -0.354855,-0.0227 -0.707033,-0.0768 -1.059237,-0.0948 -0.141336,-0.007 -0.283862,-0.008 -0.426335,-0.009 a 5.601173,5.601173 0 0 1 -0.8638,-0.053 5.5445045,5.5445045 0 0 1 -0.873849,-0.23726 l -0.206541,-0.0698 -2.008825,-0.68161 -0.843676,-0.28599 c -0.485641,-0.16472 -0.976599,-0.33207 -1.405584,-0.61225 -0.409388,-0.26744 -0.758928,-0.63554 -1.210162,-0.82248 l 0.0054,0.0298 -0.139348,-0.12821 -0.574636,-0.5296 -0.279102,-0.25741 a 3.2306309,3.2306309 0 0 0 -0.39827,-0.32834 c -0.158892,-0.10591 -0.34106,-0.18273 -0.490944,-0.30348 -0.185373,-0.14988 -0.317769,-0.36278 -0.52485,-0.48248 -0.100085,-0.0583 -0.214493,-0.0926 -0.301865,-0.16841 a 0.89610293,0.89610293 0 0 1 -0.185914,-0.27752 c -0.01853,-0.0356 -0.0376,-0.071 -0.05883,-0.1059 a 1.4829126,1.4829126 0 0 0 -0.291287,-0.31775 l -0.04653,-0.0403 a 0.15199854,0.15199854 0 0 0 -0.07466,-0.0425 h -0.01082 a 0.16947573,0.16947573 0 0 0 -0.06357,0.017 c -0.273813,0.11186 -0.558744,0.23142 -0.749406,0.45757 -0.142486,0.17002 -0.220322,0.38716 -0.367555,0.55291 -0.04923,0.0561 -0.119155,0.10915 -0.192244,0.0917 a 0.16206116,0.16206116 0 0 1 -0.10279,-0.18483 0.37072815,0.37072815 0 0 1 0.07155,-0.15889 c 0.01082,-0.0164 0.02272,-0.0318 0.03435,-0.0478 q 0.206026,-0.27593 0.412579,-0.5508 l 0.0081,-0.0108 a 3.4324132,3.4324132 0 0 1 0.353787,-0.42368 4.331164,4.331164 0 0 1 0.461297,-0.36438 c 0.261614,-0.19172 0.513706,-0.39561 0.761037,-0.60639 0.300296,-0.25582 0.593179,-0.52113 0.885522,-0.78648 l 0.0068,-0.005"
       id="path2774-1-4"
       style="fill:none;stroke:#1d1d1b;stroke-width:0.0794419px;stroke-miterlimit:10" />
    <path
       class="cls-8"
       d="m 36.964981,257.82472 a 2.7587472,2.7587472 0 0 0 -2.181472,0.78437 c -0.693264,0.69326 -0.979777,1.72599 -1.710654,2.37902 -0.168927,0.15092 -0.358006,0.27803 -0.529612,0.42897 a 0.85479322,0.85479322 0 0 1 -0.245735,0.18008 c -0.09535,0.0372 -0.219795,0.0238 -0.278047,-0.0598"
       id="path2776-1-9"
       style="fill:none;stroke:#1d1d1b;stroke-width:0.0794419px;stroke-miterlimit:10" />
    <path
       class="cls-8"
       d="m 32.383838,261.64957 a 2.6168111,2.6168111 0 0 1 -0.329942,0.91942"
       id="path2778-5-5"
       style="fill:none;stroke:#1d1d1b;stroke-width:0.0794419px;stroke-miterlimit:10" />
    <path
       class="cls-8"
       d="m 31.973395,262.71569 a 3.3699188,3.3699188 0 0 0 -0.548695,0.43693 1.1227767,1.1227767 0 0 0 -0.317756,0.6138"
       id="path2780-9-0"
       style="fill:none;stroke:#1d1d1b;stroke-width:0.0794419px;stroke-miterlimit:10" />
    <path
       class="cls-8"
       d="m 32.09255,262.8142 a 1.280601,1.280601 0 0 0 0.517967,1.07086"
       id="path2782-8-4"
       style="fill:none;stroke:#1d1d1b;stroke-width:0.0794419px;stroke-miterlimit:10" />
    <path
       class="cls-8"
       d="m 31.017449,263.93327 a 0.90775441,0.90775441 0 0 0 -0.06722,0.31777 1.4267739,1.4267739 0 0 0 0.593706,1.21069"
       id="path2784-4-8"
       style="fill:none;stroke:#1d1d1b;stroke-width:0.0794419px;stroke-miterlimit:10" />
    <path
       class="cls-8"
       d="m 30.930578,263.98146 a 2.5257179,2.5257179 0 0 0 -0.472942,0.47188 c -0.01637,0.0207 -0.03178,0.0414 -0.04707,0.0623 -0.100626,0.13978 -0.188011,0.29024 -0.282293,0.4348 a 1.9240792,1.9240792 0 0 1 -0.323572,0.39776 c -0.13878,0.12389 -0.304015,0.21502 -0.448597,0.33154 a 1.5803612,1.5803612 0 0 0 -0.374967,0.43957"
       id="path2786-8-7"
       style="fill:none;stroke:#1d1d1b;stroke-width:0.0794419px;stroke-miterlimit:10" />
    <path
       class="cls-8"
       d="m 29.137327,265.10265 a 2.3859003,2.3859003 0 0 1 0.932115,-0.15888"
       id="path2788-1-1"
       style="fill:none;stroke:#1d1d1b;stroke-width:0.0794419px;stroke-miterlimit:10" />
    <path
       class="cls-8"
       d="m 29.54566,264.64983 0.09914,-0.0583 0.406737,-0.23939 c 0.05302,-0.0307 0.114421,-0.0632 0.172119,-0.043 0.0848,0.0291 0.134438,0.15889 0.219794,0.13349"
       id="path2790-0-7"
       style="fill:none;stroke:#1d1d1b;stroke-width:0.0794419px;stroke-miterlimit:10" />
    <path
       class="cls-8"
       d="m 29.892008,263.92851 c 0.125512,-0.0912 0.179016,-0.24892 0.239919,-0.39139 0.06086,-0.14249 0.149884,-0.29393 0.299768,-0.33366 0.119696,-0.0318 0.256853,0.0149 0.365959,-0.0434"
       id="path2792-3-2"
       style="fill:none;stroke:#1d1d1b;stroke-width:0.0794419px;stroke-miterlimit:10" />
    <path
       class="cls-8"
       d="m 30.474597,262.25863 a 3.2306309,3.2306309 0 0 0 0.264792,0.58258 1.4161815,1.4161815 0 0 0 -0.365946,-0.0285"
       id="path2794-0-7"
       style="fill:none;stroke:#1d1d1b;stroke-width:0.0794419px;stroke-miterlimit:10" />
    <path
       class="cls-8"
       d="m 31.690574,260.11424 a 1.5072747,1.5072747 0 0 1 0.399866,0.009 0.51001603,0.51001603 0 0 1 0.330997,0.20654 0.62176408,0.62176408 0 0 1 0.07939,0.24575 c 0.03016,0.20654 0.01217,0.44063 -0.135115,0.58839"
       id="path2796-4-2"
       style="fill:none;stroke:#1d1d1b;stroke-width:0.0794419px;stroke-miterlimit:10" />
    <path
       class="cls-8"
       d="m 32.827647,259.14611 c -0.154104,0.24839 -0.276464,0.53966 -0.224555,0.82726 0.04869,0.26904 0.245735,0.52959 0.16472,0.78911"
       id="path2798-4-2"
       style="fill:none;stroke:#1d1d1b;stroke-width:0.0794419px;stroke-miterlimit:10" />
    <path
       class="cls-8"
       d="m 32.826065,260.00673 a 0.91834652,0.91834652 0 0 1 0.431622,-0.27488"
       id="path2800-4-6"
       style="fill:none;stroke:#1d1d1b;stroke-width:0.0794419px;stroke-miterlimit:10" />
    <path
       class="cls-8"
       d="m 31.730824,261.07283 -0.03814,-0.12119 c -0.04179,0.32994 -0.07209,0.70386 0.144582,0.95648"
       id="path2802-4-1"
       style="fill:none;stroke:#1d1d1b;stroke-width:0.0794419px;stroke-miterlimit:10" />
    <path
       class="cls-8"
       d="m 31.562952,261.3207 a 3.5637567,3.5637567 0 0 1 -0.635539,0.25526"
       id="path2804-7-0"
       style="fill:none;stroke:#1d1d1b;stroke-width:0.0794419px;stroke-miterlimit:10" />
    <path
       class="cls-8"
       d="m 30.883457,262.14424 a 0.74145631,0.74145631 0 0 0 0.745159,-0.17318"
       id="path2806-6-6"
       style="fill:none;stroke:#1d1d1b;stroke-width:0.0794419px;stroke-miterlimit:10" />
    <path
       class="cls-8"
       d="m 29.147376,261.67977 a 0.89557333,0.89557333 0 0 0 0.335785,0.50896"
       id="path2808-3-1"
       style="fill:none;stroke:#1d1d1b;stroke-width:0.0794419px;stroke-miterlimit:10" />
    <path
       class="cls-8"
       d="m 30.377676,273.97999 c 0.01542,0.0174 0.03287,-0.0281 0.0095,-0.0343 -0.02272,-0.005 -0.04139,0.0158 -0.05302,0.0356 a 1.2795418,1.2795418 0 0 0 -0.189593,0.55768 0.29287525,0.29287525 0 0 0 0.02069,0.16418 c 0.03435,0.0641 0.105901,0.097 0.169482,0.13132 0.367555,0.19808 0.612222,0.56193 0.934238,0.8278 a 2.1014992,2.1014992 0 0 0 1.294382,0.47663 0.95700825,0.95700825 0 0 1 0.270081,0.0242 c 0.114962,0.036 0.205498,0.12295 0.307193,0.18749 0.101708,0.0646 0.235673,0.1059 0.339463,0.0456"
       id="path2810-1-5"
       style="fill:none;stroke:#1d1d1b;stroke-width:0.0794419px;stroke-miterlimit:10" />
    <path
       class="cls-8"
       d="m 33.146471,275.13561 a 2.1618749,2.1618749 0 0 0 0.344252,1.2536 c 0.02326,0.0371 0.04815,0.0737 0.07466,0.10901"
       id="path2812-7-9"
       style="fill:none;stroke:#1d1d1b;stroke-width:0.0794419px;stroke-miterlimit:10" />
    <path
       class="cls-8"
       d="m 32.475984,276.35002 a 1.6195524,1.6195524 0 0 0 0.610639,1.02692 1.5544101,1.5544101 0 0 0 0.417355,0.2309"
       id="path2814-5-4"
       style="fill:none;stroke:#1d1d1b;stroke-width:0.0794419px;stroke-miterlimit:10" />
    <path
       class="cls-8"
       d="m 33.607768,276.4999 c 0,0.005 -0.0027,0.005 -0.0027,0.003 0,-0.001 0.0054,-0.018 0.01542,-0.0149 l 0.726089,0.21978 a 0.93582377,0.93582377 0 0 1 0.211855,0.0826 0.60587573,0.60587573 0 0 1 0.165235,0.14827 c 0.105901,0.13038 0.177421,0.29501 0.284403,0.42635 0.185901,0.22668 0.476648,0.3559 0.632361,0.60588"
       id="path2816-9-9"
       style="fill:none;stroke:#1d1d1b;stroke-width:0.0794419px;stroke-miterlimit:10" />
    <path
       class="cls-8"
       d="m 33.575471,277.60626 0.612763,0.008 a 2.5246586,2.5246586 0 0 1 0.485641,0.0376 2.5241291,2.5241291 0 0 1 0.40621,0.13606 l 0.509486,0.20391 0.03868,0.0154 v 0 l 0.09008,0.036 h 0.0054"
       id="path2818-6-0"
       style="fill:none;stroke:#1d1d1b;stroke-width:0.0794419px;stroke-miterlimit:10" />
    <path
       class="cls-8"
       d="m 34.622521,276.93046 0.101167,0.008 a 11.015922,11.015922 0 0 1 1.132299,0.15466 c 0.112798,0.0211 0.224555,0.044 0.336298,0.0688 a 2.3747786,2.3747786 0 0 1 0.443282,0.13295 2.6374662,2.6374662 0 0 1 0.419464,0.25209 l 0.05302,0.0344 0.206026,0.14192 a 0.27275,0.27275 0 0 1 0.02177,0.017 c 0.0234,0.0202 0.04287,0.0461 0.03395,0.0741 a 0.0910932,0.0910932 0 0 1 -0.05302,0.0456 q -0.34743,0.17479 -0.698566,0.33737 l -0.05883,0.0276"
       id="path2820-2-9"
       style="fill:none;stroke:#1d1d1b;stroke-width:0.0794419px;stroke-miterlimit:10" />
    <path
       class="cls-8"
       d="m 37.106926,277.57925 a 1.1926855,1.1926855 0 0 1 0.476648,-0.40145 v 0 l -0.229857,-0.41469 c -0.119696,-0.21555 -0.242571,-0.45334 -0.221905,-0.69432 a 0.51743058,0.51743058 0 0 1 0.0095,-0.0747"
       id="path2822-1-1"
       style="fill:none;stroke:#1d1d1b;stroke-width:0.0794419px;stroke-miterlimit:10" />
    <path
       class="cls-8"
       d="m 35.157421,275.81086 a 0.85955969,0.85955969 0 0 0 0.582562,1.12279"
       id="path2824-7-7"
       style="fill:none;stroke:#1d1d1b;stroke-width:0.0794419px;stroke-miterlimit:10" />
    <path
       class="cls-8"
       d="m 35.73629,277.00833 0.02543,0.025"
       id="path2826-8-7"
       style="fill:none;stroke:#1d1d1b;stroke-width:0.0794419px;stroke-miterlimit:10" />
    <path
       class="cls-8"
       d="m 35.711391,276.90664 a 0.3002898,0.3002898 0 0 1 0.03489,0.0223 0.38026117,0.38026117 0 0 1 0.11645,0.12984"
       id="path2828-5-1"
       style="fill:none;stroke:#1d1d1b;stroke-width:0.0794419px;stroke-miterlimit:10" />
    <path
       class="cls-8"
       d="m 37.558147,277.17675 h 0.02543 a 5.5609225,5.5609225 0 0 1 1.136545,0.16522"
       id="path2830-7-1"
       style="fill:none;stroke:#1d1d1b;stroke-width:0.0794419px;stroke-miterlimit:10" />
    <path
       class="cls-8"
       d="m 38.61948,276.20861 a 0.97289669,0.97289669 0 0 0 0.3289,1.11853 l -0.04653,0.003 -0.16261,0.0108 a 0.11598496,0.11598496 0 0 1 -0.01907,0 l -0.0752,0.005"
       id="path2832-4-5"
       style="fill:none;stroke:#1d1d1b;stroke-width:0.0794419px;stroke-miterlimit:10" />
    <path
       class="cls-8"
       d="m 38.746601,277.43836 a 1.1508461,1.1508461 0 0 0 -0.479839,0.53386 l -0.01082,0.026 a 2.2937482,2.2937482 0 0 0 -0.91993,-0.2574 c -0.01799,0 -0.03557,-0.003 -0.05302,-0.003"
       id="path2834-1-9"
       style="fill:none;stroke:#1d1d1b;stroke-width:0.0794419px;stroke-miterlimit:10" />
    <path
       class="cls-8"
       d="m 38.266234,277.94415 a 0.24838786,0.24838786 0 0 0 0,0.0281 0.29340485,0.29340485 0 0 0 0.07412,0.17583"
       id="path2836-8-7"
       style="fill:none;stroke:#1d1d1b;stroke-width:0.0794419px;stroke-miterlimit:10" />
    <path
       class="cls-8"
       d="m 38.90813,277.33986 c 0.0027,-0.005 0,-0.007 -0.0054,-0.007 -0.0054,0 -0.0095,0.003 -0.0095,0.008 5.81e-4,0.005 0.01542,0.0158 0.02691,0.0176 0.373912,0.0482 0.755249,-0.12659 1.123846,-0.0498 0.131868,0.0276 0.256339,0.0864 0.38979,0.10225 0.0211,0 0.04247,0.003 0.06357,0.004 0.137779,0.005 0.281239,-0.0164 0.402504,0.0465"
       id="path2838-5-7"
       style="fill:none;stroke:#1d1d1b;stroke-width:0.0794419px;stroke-miterlimit:10" />
    <path
       class="cls-8"
       d="m 40.498019,277.2959 a 1.6312038,1.6312038 0 0 0 0.833613,-1.42571"
       id="path2840-9-6"
       style="fill:none;stroke:#1d1d1b;stroke-width:0.0794419px;stroke-miterlimit:10" />
    <path
       class="cls-8"
       d="m 30.066264,274.55779 c -0.336299,0.0567 -0.601119,-0.38396 -0.908298,-0.43903 a 0.32888882,0.32888882 0 0 0 -0.162584,0.009 0.92364274,0.92364274 0 0 0 -0.07209,0.206 1.3033743,1.3033743 0 0 0 0.04436,0.68268 c 0.09373,0.28863 0.264819,0.54656 0.436925,0.79442 a 1.0549864,1.0549864 0 0 0 0.2357,0.26481 c 0.131868,0.0932 0.296575,0.12389 0.453344,0.16418 1.016308,0.26162 1.868991,1.02585 2.908089,1.17361"
       id="path2842-7-7"
       style="fill:none;stroke:#1d1d1b;stroke-width:0.0794419px;stroke-miterlimit:10" />
    <path
       class="cls-8"
       d="m 29.162213,274.09863 a 1.1979816,1.1979816 0 0 1 0.423684,-0.88922"
       id="path2844-5-3"
       style="fill:none;stroke:#1d1d1b;stroke-width:0.0794419px;stroke-miterlimit:10" />
    <path
       class="cls-8"
       d="m 28.797836,274.30572 c -0.293411,-0.34108 -0.827783,-0.29131 -1.246179,-0.456 -0.515829,-0.20285 -0.819317,-0.72187 -0.970783,-1.2679 -0.02813,-0.10103 -0.05302,-0.20283 -0.06884,-0.30399 -0.03124,-0.17636 -0.06573,-0.37074 -0.142486,-0.53279 a 0.53437816,0.53437816 0 0 0 -0.256325,-0.27063 l -0.01745,-0.008"
       id="path2846-3-6"
       style="fill:none;stroke:#1d1d1b;stroke-width:0.0794419px;stroke-miterlimit:10" />
    <path
       class="cls-8"
       d="m 26.447423,271.73287 a 1.0089102,1.0089102 0 0 0 0.403572,0.0348 0.29817135,0.29817135 0 0 0 0.139335,-0.0444 c 0.06465,-0.0456 0.08954,-0.12768 0.122401,-0.19969 0.03287,-0.0721 0.09048,-0.14351 0.16683,-0.14351 h 0.0054"
       id="path2848-8-5"
       style="fill:none;stroke:#1d1d1b;stroke-width:0.0794419px;stroke-miterlimit:10" />
    <path
       class="cls-8"
       d="m 26.675157,272.56807 c 0.110634,-0.0334 0.230384,0 0.339477,0.0381 a 2.2699157,2.2699157 0 0 1 0.505253,0.26003 c 0.125512,0.0864 0.249441,0.18855 0.400394,0.21184 0.150925,0.0234 0.299227,-0.0348 0.439575,-0.0926 l 0.590515,-0.24096"
       id="path2850-8-6"
       style="fill:none;stroke:#1d1d1b;stroke-width:0.0794419px;stroke-miterlimit:10" />
    <path
       class="cls-8"
       d="m 25.918866,271.1185 a 0.1493505,0.1493505 0 0 0 -0.07777,0 h -0.0027 a 0.21184467,0.21184467 0 0 0 -0.126053,0.11496 0.40991942,0.40991942 0 0 0 -0.0054,0.25474 0.19701553,0.19701553 0 0 0 0.0848,0.14249 c 0.07101,0.0356 0.153062,-0.0149 0.216088,-0.0624 a 0.70650191,0.70650191 0 0 0 0.105901,-0.0937 0.21767038,0.21767038 0 0 0 0.05667,-0.12389 0.1869529,0.1869529 0 0 0 -0.04707,-0.13403 0.26480583,0.26480583 0 0 0 -0.105901,-0.0752 0.43481115,0.43481115 0 0 0 -0.175297,-0.0218 h -0.0027 c -0.03287,0 -0.06506,0.005 -0.09697,0.009"
       id="path2852-3-3"
       style="fill:none;stroke:#1d1d1b;stroke-width:0.0794419px;stroke-miterlimit:10" />
    <path
       class="cls-8"
       d="m 26.093109,271.23238 0.02976,-0.0158 q 0.332065,-0.17636 0.669974,-0.33896 l -0.0376,0.0588"
       id="path2854-1-9"
       style="fill:none;stroke:#1d1d1b;stroke-width:0.0794419px;stroke-miterlimit:10" />
    <path
       class="cls-8"
       d="m 25.852134,271.15982 a 0.14034709,0.14034709 0 0 1 -0.0142,-0.0391 c 0,0 0,0 0,0 -0.0238,-0.1059 0.0683,-0.21981 0.153576,-0.3003 0.120237,-0.11279 0.248387,-0.23038 0.408861,-0.26481"
       id="path2856-8-4"
       style="fill:none;stroke:#1d1d1b;stroke-width:0.0794419px;stroke-miterlimit:10" />
    <path
       class="cls-8"
       d="m 25.565621,271.56868 a 0.21184467,0.21184467 0 0 1 0.204944,0.1059 0.31247088,0.31247088 0 0 1 -0.05302,0.40779 c -0.119696,0.0917 -0.325709,0.0444 -0.376022,-0.0979 -0.05613,-0.15889 0.08047,-0.31355 0.211842,-0.4237 l 0.02502,-0.0216"
       id="path2858-9-8"
       style="fill:none;stroke:#1d1d1b;stroke-width:0.0794419px;stroke-miterlimit:10" />
    <path
       class="cls-8"
       d="m 25.846832,272.27625 a 0.06620145,0.06620145 0 0 1 0.01637,-0.073 0.91410966,0.91410966 0 0 0 0.512137,0.23037"
       id="path2860-6-1"
       style="fill:none;stroke:#1d1d1b;stroke-width:0.0794419px;stroke-miterlimit:10" />
    <path
       class="cls-8"
       d="m 26.32509,272.40387 h 0.177407"
       id="path2862-4-2"
       style="fill:none;stroke:#1d1d1b;stroke-width:0.0794419px;stroke-miterlimit:10" />
    <path
       class="cls-8"
       d="m 26.998215,266.84031 a 4.5546601,4.5546601 0 0 0 0.367014,0.98614 1.2567685,1.2567685 0 0 0 0.137211,0.22401 1.2949004,1.2949004 0 0 0 0.363835,0.2876 l 0.0376,0.0223 0.03652,0.0211"
       id="path2864-3-9"
       style="fill:none;stroke:#1d1d1b;stroke-width:0.0794419px;stroke-miterlimit:10" />
    <path
       class="cls-8"
       d="m 28.69721,266.50188 a 2.4266805,2.4266805 0 0 1 -0.710738,0.43429 1.2096329,1.2096329 0 0 0 -0.24203,0.11185 c -0.135114,0.0921 -0.211842,0.24468 -0.285458,0.39138"
       id="path2866-3-3"
       style="fill:none;stroke:#1d1d1b;stroke-width:0.0794419px;stroke-miterlimit:10" />
    <path
       class="cls-8"
       d="m 29.013397,267.21209 -0.06979,-0.0921 a 1.0343315,1.0343315 0 0 0 0.423698,0.64562 v 0"
       id="path2868-3-9"
       style="fill:none;stroke:#1d1d1b;stroke-width:0.0794419px;stroke-miterlimit:10" />
    <path
       class="cls-8"
       d="m 27.948345,267.72158 0.184305,0.37496 a 0.44646263,0.44646263 0 0 0 0.09792,0.14617 0.1869529,0.1869529 0 0 0 0.06154,0.0349 0.12922526,0.12922526 0 0 0 0.102249,-0.005"
       id="path2870-8-0"
       style="fill:none;stroke:#1d1d1b;stroke-width:0.0794419px;stroke-miterlimit:10" />
    <path
       class="cls-8"
       d="m 29.797752,266.22278 a 1.2091033,1.2091033 0 0 0 0.08643,1.10105"
       id="path2872-6-8"
       style="fill:none;stroke:#1d1d1b;stroke-width:0.0794419px;stroke-miterlimit:10" />
    <path
       class="cls-8"
       d="m 25.487244,268.63357 a 0.61117183,0.61117183 0 0 0 0.09751,0.33843 2.0326495,2.0326495 0 0 0 0.640313,0.69644"
       id="path2874-0-8"
       style="fill:none;stroke:#1d1d1b;stroke-width:0.0794419px;stroke-miterlimit:10" />
    <path
       class="cls-8"
       d="m 24.86972,269.77437 a 1.0062622,1.0062622 0 0 0 0.501006,0.71919"
       id="path2876-4-5"
       style="fill:none;stroke:#1d1d1b;stroke-width:0.0794419px;stroke-miterlimit:10" />
    <path
       class="cls-8"
       d="m 26.584593,267.13052 a 1.5252815,1.5252815 0 0 0 -0.988784,0.92259"
       id="path2878-8-0"
       style="fill:none;stroke:#1d1d1b;stroke-width:0.0794419px;stroke-miterlimit:10" />
    <path
       class="cls-8"
       d="m 25.288115,269.115 a 0.13452135,0.13452135 0 0 0 0.02218,-0.12659 5.180661,5.180661 0 0 1 -0.457591,0.77323 q -0.149329,0.20868 -0.317756,0.40251 a 0.77852918,0.77852918 0 0 0 -0.164166,0.23939 0.3855573,0.3855573 0 0 0 -0.01082,0.20654 0.5047199,0.5047199 0 0 0 0.117126,0.23091 0.8675039,0.8675039 0 0 0 0.402504,0.23462"
       id="path2880-8-9"
       style="fill:none;stroke:#1d1d1b;stroke-width:0.0794419px;stroke-miterlimit:10" />
    <path
       class="cls-8"
       d="m 28.396915,264.00794 c 0.01745,-0.1059 0.06357,-0.1822 0.118073,-0.1822 0.06979,0 0.126053,0.12511 0.126053,0.27966 0,0.15463 -0.05613,0.27963 -0.126053,0.27963 -0.04341,0 -0.08115,-0.0483 -0.105901,-0.12132 a 0.55026649,0.55026649 0 0 1 -0.02177,-0.15889 0.5672141,0.5672141 0 0 1 0.0095,-0.097 z"
       id="path2882-8-6"
       style="fill:none;stroke:#1d1d1b;stroke-width:0.0794419px;stroke-miterlimit:10" />
  </g>
</svg>
